<svg width="25" height="24" viewBox="0 0 25 24" fill="none" xmlns="http://www.w3.org/2000/svg">
<path d="M4.90887 6C4.90887 9.31372 7.54618 12 10.7995 12C14.0528 12 16.6901 9.31372 16.6901 6C16.6901 2.68628 14.0528 0 10.7995 0C7.54618 0 4.90887 2.68628 4.90887 6Z" fill="#212135"/>
<path d="M0 19C0 23.1175 1.90614 24 10.7995 24C19.6929 24 21.599 23.1175 21.599 19C21.599 14.8825 19.6929 14 10.7995 14C1.90614 14 0 14.8825 0 19Z" fill="#212135"/>
<path d="M23.324 7.29291C23.7074 6.90234 24.329 6.90234 24.7124 7.29291C25.0959 7.68341 25.0959 8.31659 24.7124 8.70709L20.7497 12.7433C20.5476 12.9493 20.2792 13.0466 20.0144 13.0354C19.7723 13.0286 19.5326 12.931 19.3479 12.7429L17.9595 11.3287C17.576 10.9382 17.576 10.305 17.9595 9.91449C18.3429 9.52393 18.9645 9.52393 19.3479 9.91449L20.0491 10.6287L23.324 7.29291Z" fill="#212135"/>
</svg>
