<svg width="20" height="20" viewBox="0 0 20 20" fill="none" xmlns="http://www.w3.org/2000/svg">
<path d="M6.72656 8.85936C6.15625 8.74608 5.625 9.20702 5.625 9.78905V11.7578C5.625 12.1562 5.90234 12.4765 6.27734 12.6172C6.98828 12.8828 7.5 13.5703 7.5 14.375C7.5 15.4101 6.66016 16.25 5.625 16.25C4.58984 16.25 3.75 15.4101 3.75 14.375V4.68749C3.75 4.16795 3.33203 3.74999 2.8125 3.74999H0.9375C0.417969 3.74999 0 4.16795 0 4.68749V14.375C0 17.8711 3.20703 20.6328 6.83594 19.8711C8.96094 19.4258 10.6758 17.707 11.1211 15.5859C11.8008 12.3476 9.67578 9.4453 6.72656 8.85936ZM8.16406 -1.45714e-05C7.80469 -0.0195458 7.5 0.26561 7.5 0.624986V1.85936C7.5 2.19139 7.75781 2.46483 8.08594 2.48045C13.1406 2.75389 17.2031 6.85545 17.4961 11.914C17.5156 12.2422 17.7891 12.5 18.1172 12.5H19.3711C19.7305 12.5 20.0156 12.1953 19.9961 11.8359C19.6641 5.46092 14.5391 0.335923 8.16406 -1.45714e-05ZM8.17578 3.74999C7.8125 3.72264 7.5 4.0117 7.5 4.37889V5.6328C7.5 5.96092 7.75391 6.23045 8.07812 6.25389C11.0781 6.49999 13.4688 8.91795 13.7383 11.9258C13.7695 12.25 14.0352 12.5 14.3594 12.5H15.6172C15.9805 12.5 16.2734 12.1875 16.2461 11.8242C15.918 7.52342 12.4766 4.08202 8.17578 3.74999Z" fill="white"/>
</svg>
