<svg width="24" height="24" viewBox="0 0 24 24" fill="none" xmlns="http://www.w3.org/2000/svg">
<g clip-path="url(#clip0_913_666)">
<path d="M24 7.6562L22.788 11.0402V11.0282C22.164 10.8002 21.552 10.8362 20.952 11.1242C20.352 11.4122 19.932 11.8682 19.704 12.4922C19.476 13.1162 19.512 13.7282 19.788 14.3282C20.076 14.9282 20.532 15.3362 21.168 15.5642V15.5762L19.956 18.9602L1.884 12.5042L3.072 9.1562C3.696 9.3842 4.308 9.3482 4.908 9.06019C5.508 8.78419 5.916 8.3282 6.144 7.7042C6.372 7.08019 6.336 6.46819 6.048 5.8682C5.772 5.28019 5.316 4.8722 4.692 4.6442L5.916 1.2002L24 7.6562ZM18.036 14.4842L19.68 9.9722C19.824 9.60019 19.8 9.19219 19.632 8.83219C19.464 8.4722 19.164 8.1962 18.792 8.0522L9.768 4.7762C9 4.5002 8.124 4.92019 7.848 5.66419L6.204 10.1762C5.916 10.9562 6.324 11.8202 7.092 12.0962L16.116 15.3842C16.284 15.4442 16.452 15.4802 16.632 15.4802C17.256 15.4802 17.832 15.0842 18.036 14.4842ZM9.564 5.34019L18.576 8.61619C18.804 8.70019 18.984 8.8682 19.092 9.0842C19.188 9.30019 19.2 9.5402 19.116 9.7682L17.472 14.2802C17.316 14.7362 16.776 14.9882 16.32 14.8202L7.308 11.5322C6.84 11.3642 6.6 10.8482 6.768 10.3802L8.412 5.8682C8.532 5.5202 8.88 5.2802 9.252 5.2802C9.36 5.2802 9.456 5.30419 9.564 5.34019ZM17.748 19.9082C18.168 20.2322 18.648 20.4002 19.188 20.4002H19.2V24.0002H0V20.4482C0.66 20.4482 1.236 20.2082 1.692 19.7402C2.16 19.2842 2.4 18.7082 2.4 18.0482C2.4 17.3882 2.16 16.8242 1.692 16.3562C1.224 15.8882 0.66 15.6482 0 15.6482V12.0002H1.26L0.924 12.9602L4.368 14.1842C3.756 14.3762 3.3 14.9282 3.3 15.6002V20.4002C3.3 21.2282 3.972 21.9002 4.8 21.9002H14.4C15.228 21.9002 15.9 21.2282 15.9 20.4002V18.3002L16.896 18.6602C17.04 19.1762 17.328 19.5962 17.748 19.9082ZM3.9 20.4002V15.6002C3.9 15.1082 4.308 14.7002 4.8 14.7002H5.796L15.3 18.0962V20.4002C15.3 20.8922 14.892 21.3002 14.4 21.3002H4.8C4.308 21.3002 3.9 20.8922 3.9 20.4002Z" fill="black"/>
</g>
<defs>
<clipPath id="clip0_913_666">
<rect width="24" height="24" fill="white"/>
</clipPath>
</defs>
</svg>
