<svg width="20" height="22" viewBox="0 0 20 22" fill="none" xmlns="http://www.w3.org/2000/svg">
<path d="M17.8333 6.83333H12.8333C12.6123 6.83333 12.4004 6.92113 12.2441 7.07741C12.0878 7.23369 12 7.44565 12 7.66667V10.1667H10.3333V4.33333C10.3333 4.11232 10.2455 3.90036 10.0893 3.74408C9.93297 3.5878 9.72101 3.5 9.5 3.5H2.83333C2.61232 3.5 2.40036 3.5878 2.24408 3.74408C2.0878 3.90036 2 4.11232 2 4.33333V17.6667C2 17.8877 2.0878 18.0996 2.24408 18.2559C2.40036 18.4122 2.61232 18.5 2.83333 18.5H17.8333C18.0543 18.5 18.2663 18.4122 18.4226 18.2559C18.5789 18.0996 18.6667 17.8877 18.6667 17.6667V7.66667C18.6667 7.44565 18.5789 7.23369 18.4226 7.07741C18.2663 6.92113 18.0543 6.83333 17.8333 6.83333ZM7 6H8.66667V7.66667H7V6ZM5.33333 14.3333H3.66667V12.6667H5.33333V14.3333ZM5.33333 11H3.66667V9.33333H5.33333V11ZM5.33333 7.66667H3.66667V6H5.33333V7.66667ZM8.66667 14.3333H7V12.6667H8.66667V14.3333ZM8.66667 11H7V9.33333H8.66667V11ZM16.1667 14.3333H14.5V12.6667H16.1667V14.3333ZM16.1667 11H14.5V9.33333H16.1667V11Z" fill="black"/>
</svg>
