<svg width="24" height="24" viewBox="0 0 24 24" fill="none" xmlns="http://www.w3.org/2000/svg">
<g clip-path="url(#clip0_1145_809)">
<path d="M12.0005 11.0999C9.2765 11.0999 8.7245 6.9719 8.7245 6.9719C8.4005 4.8239 9.3845 2.3999 11.9645 2.3999C14.5565 2.3999 15.5405 4.8239 15.2165 6.9719C15.2165 6.9719 14.7245 11.0999 12.0005 11.0999ZM12.0005 14.1839L15.2645 11.9999C18.1325 11.9999 20.6885 14.7959 20.6885 17.4359V20.4239C20.6885 20.4239 16.3085 21.7799 12.0005 21.7799C7.6205 21.7799 3.3125 20.4239 3.3125 20.4239V17.4359C3.3125 14.7359 5.6405 12.0599 8.6765 12.0599L12.0005 14.1839Z" fill="black"/>
</g>
<defs>
<clipPath id="clip0_1145_809">
<rect width="24" height="24" fill="white"/>
</clipPath>
</defs>
</svg>
