<svg width="24" height="24" viewBox="0 0 24 24" fill="none" xmlns="http://www.w3.org/2000/svg">
<g clip-path="url(#clip0_547_428)">
<path d="M13.2002 7.2H12.2162C10.8842 7.2 9.60019 8.64 9.60019 9.792V12L6.0002 15.6V12H3.6002C2.2802 12 1.2002 10.92 1.2002 9.6V3.6C1.2002 2.28 2.2802 1.2 3.6002 1.2H10.8002C12.1202 1.2 13.2002 2.28 13.2002 3.6V7.2ZM13.2002 8.4H20.4002C21.7202 8.4 22.8002 9.48 22.8002 10.8V16.8C22.8002 18.12 21.7202 19.2 20.4002 19.2H18.0002V22.8L14.4002 19.2H13.2002C11.8802 19.2 10.8002 18.12 10.8002 16.8V10.8C10.8002 9.48 11.8802 8.4 13.2002 8.4Z" fill="#333333"/>
</g>
<defs>
<clipPath id="clip0_547_428">
<rect width="24" height="24" fill="white"/>
</clipPath>
</defs>
</svg>
