<svg width="128" height="92" viewBox="0 0 128 92" fill="none" xmlns="http://www.w3.org/2000/svg">
<g filter="url(#filter0_di_422_422)">
<path d="M82.6687 16.7341C77.152 16.1098 72.2211 19.9693 71.0982 26.3263C71.0982 28.2561 77.689 30.8102 83.7428 30.8102C89.7966 30.8102 95.2645 26.3263 95.2645 25.0776C95.2645 23.7721 91.4565 17.4152 82.6687 16.7341ZM45.3209 16.7341C36.5331 17.4152 32.6763 23.1478 32.6763 25.0208C32.6763 26.3263 38.6813 30.8102 44.198 30.8102C49.7147 30.8102 56.8426 28.2561 56.8426 26.3263C55.7197 19.9693 50.2518 16.1098 45.3209 16.7341ZM88.1367 51.8675C78.8119 51.8675 72.7581 39.0969 63.9704 39.0969C55.1827 39.0969 48.5919 51.8675 39.8041 51.8675C28.2824 51.8675 20.0317 39.7212 20.0317 18.0396C20.0317 4.6446 23.3515 0.785034 38.1442 0.785034C52.9369 0.785034 56.8426 7.82306 63.9704 7.82306C71.0982 7.82306 75.4921 0.785034 89.7966 0.785034C104.101 0.785034 107.909 5.26894 107.909 18.0396C107.909 39.7212 99.6583 51.8675 88.1367 51.8675Z" fill="#555BFC"/>
<path d="M70.1135 26.1523L70.0982 26.2386V26.3263C70.0982 26.8574 70.3238 27.3158 70.595 27.6753C70.868 28.0372 71.2342 28.3628 71.6399 28.6537C72.4523 29.2362 73.5565 29.7735 74.8067 30.231C77.3133 31.1481 80.5906 31.8102 83.7428 31.8102C87.0041 31.8102 90.0624 30.6082 92.2891 29.2691C93.4063 28.5973 94.3439 27.8735 95.016 27.2138C95.3505 26.8855 95.6382 26.5546 95.8499 26.237C96.0362 25.9574 96.2645 25.5421 96.2645 25.0776C96.2645 24.7206 96.1474 24.3355 96.0108 23.9975C95.8637 23.6334 95.6518 23.2232 95.38 22.7886C94.8355 21.9182 94.024 20.9079 92.9294 19.927C90.7357 17.9611 87.3899 16.1011 82.7634 15.7385C76.6541 15.0566 71.3133 19.3598 70.1135 26.1523ZM57.8426 26.3263V26.2386L57.8273 26.1523C56.6248 19.3444 50.7349 15.0556 45.2198 15.739C40.6248 16.1 37.2726 17.785 35.0557 19.6684C33.9492 20.6085 33.1218 21.6012 32.5644 22.5079C32.0284 23.3796 31.6763 24.2796 31.6763 25.0208C31.6763 25.5098 31.929 25.9394 32.1285 26.2216C32.3565 26.5442 32.665 26.8784 33.0196 27.2083C33.7325 27.8715 34.7174 28.5965 35.8627 29.2678C38.1376 30.6012 41.1959 31.8102 44.198 31.8102C47.0883 31.8102 50.3632 31.1457 52.9244 30.234C54.2035 29.7787 55.3529 29.2449 56.2033 28.6691C56.6274 28.3819 57.0136 28.06 57.3033 27.7015C57.5889 27.3481 57.8426 26.8806 57.8426 26.3263ZM88.1367 50.8675C83.9056 50.8675 80.3447 47.9699 76.4976 44.7184C76.4336 44.6643 76.3695 44.6102 76.3054 44.5559C74.4931 43.0236 72.623 41.4425 70.6658 40.2402C68.6277 38.9883 66.4186 38.0969 63.9704 38.0969C61.5248 38.0969 59.2843 38.9865 57.2075 40.2353C55.1513 41.4718 53.1804 43.1085 51.2812 44.6856L51.2484 44.7129C49.313 46.3201 47.4502 47.8642 45.5363 49.0151C43.6311 50.1608 41.7524 50.8675 39.8041 50.8675C34.4529 50.8675 29.8066 48.0686 26.4512 42.5637C23.0766 37.0274 21.0317 28.7719 21.0317 18.0396C21.0317 11.3366 21.8866 7.42256 24.2425 5.10156C26.6063 2.77286 30.7468 1.78503 38.1442 1.78503C45.3527 1.78503 49.8796 3.49207 53.5037 5.20787C54.1343 5.50642 54.7562 5.81501 55.3685 6.11885C56.4884 6.67459 57.5762 7.21443 58.6269 7.64782C60.2989 8.33747 62.0137 8.82306 63.9704 8.82306C65.9251 8.82306 67.6683 8.33846 69.3749 7.65093C70.4784 7.20637 71.6184 6.65294 72.7917 6.08331C73.3907 5.7925 73.9985 5.49746 74.6145 5.21054C78.3089 3.48972 82.8362 1.78503 89.7966 1.78503C96.9103 1.78503 101.075 2.91577 103.513 5.33336C105.945 7.74578 106.909 11.6881 106.909 18.0396C106.909 28.7719 104.864 37.0274 101.49 42.5637C98.1342 48.0686 93.4879 50.8675 88.1367 50.8675Z" stroke="#DBDEF8" stroke-width="2"/>
</g>
<defs>
<filter id="filter0_di_422_422" x="0.0317383" y="0.785034" width="127.877" height="91.0825" filterUnits="userSpaceOnUse" color-interpolation-filters="sRGB">
<feFlood flood-opacity="0" result="BackgroundImageFix"/>
<feColorMatrix in="SourceAlpha" type="matrix" values="0 0 0 0 0 0 0 0 0 0 0 0 0 0 0 0 0 0 127 0" result="hardAlpha"/>
<feOffset dy="20"/>
<feGaussianBlur stdDeviation="10"/>
<feComposite in2="hardAlpha" operator="out"/>
<feColorMatrix type="matrix" values="0 0 0 0 0.333281 0 0 0 0 0.35817 0 0 0 0 0.9875 0 0 0 0.54 0"/>
<feBlend mode="normal" in2="BackgroundImageFix" result="effect1_dropShadow_422_422"/>
<feBlend mode="normal" in="SourceGraphic" in2="effect1_dropShadow_422_422" result="shape"/>
<feColorMatrix in="SourceAlpha" type="matrix" values="0 0 0 0 0 0 0 0 0 0 0 0 0 0 0 0 0 0 127 0" result="hardAlpha"/>
<feOffset dx="9" dy="9"/>
<feGaussianBlur stdDeviation="7.5"/>
<feComposite in2="hardAlpha" operator="arithmetic" k2="-1" k3="1"/>
<feColorMatrix type="matrix" values="0 0 0 0 0 0 0 0 0 0 0 0 0 0 0 0 0 0 1 0"/>
<feBlend mode="normal" in2="shape" result="effect2_innerShadow_422_422"/>
</filter>
</defs>
</svg>
