<svg width="79" height="129" viewBox="0 0 79 129" fill="none" xmlns="http://www.w3.org/2000/svg">
<g filter="url(#filter0_di_423_415)">
<path d="M64.1979 22.2178L64.2081 22.2223L64.2186 22.2264C65.0316 22.5427 65.7279 23.0896 66.2191 23.7953C66.71 24.5007 66.9738 25.3328 66.9779 26.1848C66.9779 26.185 66.9779 26.1853 66.9779 26.1856L66.9779 46.3241C66.9762 47.1733 66.7163 48.0035 66.2304 48.7087C65.7444 49.4141 65.0538 49.9628 64.2459 50.2832L64.2364 50.287L64.2271 50.2911C63.6308 50.5564 62.9834 50.6945 62.3279 50.6963C61.1426 50.6907 60.0027 50.2565 59.1261 49.4793C59.1254 49.4787 59.1247 49.4781 59.1241 49.4775L52.5453 43.5045L51.7092 42.7453V43.8747V48.2079C51.7092 50.4498 50.8011 52.6019 49.1813 54.1902C47.5611 55.7789 45.3617 56.6731 43.0663 56.6731H15.6376C13.3422 56.6731 11.1427 55.7789 9.5226 54.1902C7.90279 52.6019 6.99463 50.4498 6.99463 48.2079V24.3006C6.99463 22.0586 7.90279 19.9065 9.5226 18.3182C11.1427 16.7295 13.3422 15.8353 15.6376 15.8353H43.0663C45.3617 15.8353 47.5611 16.7295 49.1813 18.3182C50.8011 19.9065 51.7092 22.0586 51.7092 24.3006V28.6338V29.7666L52.5462 29.0032L59.0969 23.0279C59.0972 23.0276 59.0975 23.0274 59.0978 23.0271C59.7719 22.4183 60.6147 22.0161 61.5219 21.8718C62.4295 21.7275 63.3602 21.848 64.1979 22.2178Z" fill="#555BFC" stroke="#E6E6F9"/>
</g>
<g filter="url(#filter1_di_423_415)">
<path d="M37.5335 87.4839C37.5335 88.8343 36.4144 89.9457 35.0131 89.9457C33.6118 89.9457 32.4927 88.8343 32.4927 87.4839C32.4927 86.1336 33.6118 85.0222 35.0131 85.0222C36.4144 85.0222 37.5335 86.1336 37.5335 87.4839Z" fill="#555BFC" stroke="#E6E6F9"/>
<path d="M52.8562 79.3341L52.8561 79.3342L52.859 79.3433L54.4494 84.3178C54.4495 84.3181 54.4496 84.3185 54.4497 84.3188C54.7754 85.3472 54.6809 86.4595 54.1852 87.4217C53.6893 88.3844 52.8294 89.1232 51.7848 89.4786L51.7836 89.4791L51.3845 89.616C51.3838 89.6162 51.3832 89.6165 51.3825 89.6167C50.7227 89.8378 50.1267 90.2132 49.6463 90.7115C49.1661 91.2096 48.8159 91.8155 48.6267 92.4774C48.4433 93.0918 48.397 93.7379 48.491 94.3716C48.5851 95.0064 48.8178 95.6133 49.1726 96.1509L49.1725 96.151L49.1799 96.1616L49.7034 96.9119L49.7044 96.9132C50.3245 97.7958 50.576 98.8761 50.4092 99.9328C50.2426 100.988 49.6707 101.944 48.8073 102.603L44.7231 105.601L44.719 105.605C44.2843 105.931 43.7856 106.166 43.2535 106.297C42.7213 106.427 42.1675 106.449 41.6261 106.362C41.0848 106.274 40.5679 106.079 40.1072 105.789C39.6465 105.499 39.2521 105.12 38.9476 104.675L38.9477 104.675L38.941 104.666L38.7032 104.336C38.326 103.782 37.8131 103.332 37.2127 103.026C36.6102 102.718 35.9388 102.566 35.261 102.582L35.2604 102.582C34.6158 102.599 33.9837 102.764 33.4151 103.064C32.8464 103.364 32.3567 103.792 31.9861 104.313L31.9861 104.313L31.5229 104.965L31.5169 104.973L31.5112 104.982C31.2178 105.433 30.8332 105.822 30.3803 106.124C29.9338 106.422 29.4304 106.629 28.8999 106.733C28.678 106.753 28.4547 106.752 28.233 106.731L28.2062 106.728L28.1793 106.729C27.3105 106.739 26.4625 106.474 25.761 105.975L21.597 102.879L21.5944 102.877C20.693 102.215 20.097 101.233 19.9324 100.146C19.7678 99.0592 20.0472 97.9516 20.7121 97.0637L20.7179 97.056L20.7233 97.0481C21.1365 96.4499 21.3995 95.7634 21.4901 95.0449C21.5807 94.3264 21.4962 93.5972 21.2438 92.9173L21.2438 92.9173L21.242 92.9128L21.1288 92.6166C20.9492 92.0009 20.6259 91.4354 20.1854 90.9649L19.8204 91.3066L20.1854 90.9649C19.7397 90.4888 19.1866 90.1234 18.5714 89.8973L18.4879 89.8666H18.399H18.1594C17.1393 89.5095 16.3001 88.7819 15.8147 87.8364C15.3178 86.8685 15.2306 85.7485 15.5713 84.7187L15.5726 84.7147L17.2238 79.5811L17.2238 79.5811L17.2262 79.5734C17.3779 79.0741 17.633 78.6102 17.9762 78.2107C18.3193 77.8111 18.7432 77.4844 19.2218 77.2515L19.2219 77.2515L19.2285 77.2482C19.6871 77.0165 20.1893 76.8782 20.7047 76.8422C21.22 76.8061 21.7374 76.8729 22.2253 77.0384L22.2253 77.0385L22.2292 77.0398C22.9051 77.2628 23.6259 77.3205 24.3293 77.2082C25.0328 77.0958 25.6984 76.8165 26.2681 76.3939L26.2681 76.394L26.2713 76.3915L26.533 76.1941L26.5331 76.1942L26.5401 76.1887C27.0556 75.7853 27.473 75.2731 27.7609 74.6891C28.0489 74.1051 28.1997 73.4647 28.2019 72.8151V72.8134L28.2019 72.3396L28.2019 72.3373C28.1971 71.2642 28.6247 70.2308 29.3948 69.4624C30.1645 68.6945 31.2142 68.2538 32.3163 68.239H37.4471C37.9818 68.2405 38.5107 68.3455 39.0034 68.5478C39.496 68.7501 39.9424 69.0455 40.3173 69.4167C41.1094 70.207 41.5476 71.2712 41.5389 72.3751H41.5389V72.3791V72.9274C41.5279 73.5502 41.6661 74.1665 41.9418 74.7268C42.2182 75.2884 42.6248 75.7776 43.1281 76.1553L43.128 76.1554L43.138 76.1625L43.3566 76.3185C43.8724 76.6969 44.4729 76.9473 45.1072 77.049C45.7422 77.1508 46.3928 77.1007 47.0041 76.9029C47.0046 76.9027 47.0051 76.9025 47.0056 76.9024L47.6872 76.6862L47.6906 76.6851C48.2079 76.5169 48.7546 76.4526 49.2981 76.4961C49.8416 76.5396 50.3703 76.6899 50.8525 76.9378C51.3347 77.1858 51.7603 77.526 52.1044 77.9378C52.4485 78.3496 52.704 78.8245 52.8562 79.3341ZM30.8218 93.6481C32.0628 94.4612 33.5207 94.8946 35.0113 94.8946C37.01 94.8946 38.9287 94.1161 40.3449 92.7275C41.7614 91.3385 42.559 89.4525 42.559 87.4839C42.559 86.016 42.115 84.5819 41.2844 83.3629C40.4539 82.1441 39.2745 81.1957 37.8965 80.636C36.5186 80.0763 35.0029 79.93 33.5407 80.2152C32.0784 80.5004 30.734 81.2046 29.6778 82.2403C28.6215 83.276 27.9011 84.5968 27.6091 86.0363C27.317 87.4757 27.467 88.9677 28.0395 90.323C28.612 91.6783 29.5808 92.835 30.8218 93.6481Z" fill="#555BFC" stroke="#E6E6F9"/>
</g>
<defs>
<filter id="filter0_di_423_415" x="5.49463" y="15.3353" width="72.9834" height="62.8378" filterUnits="userSpaceOnUse" color-interpolation-filters="sRGB">
<feFlood flood-opacity="0" result="BackgroundImageFix"/>
<feColorMatrix in="SourceAlpha" type="matrix" values="0 0 0 0 0 0 0 0 0 0 0 0 0 0 0 0 0 0 127 0" result="hardAlpha"/>
<feOffset dx="5" dy="15"/>
<feGaussianBlur stdDeviation="3"/>
<feComposite in2="hardAlpha" operator="out"/>
<feColorMatrix type="matrix" values="0 0 0 0 0.741176 0 0 0 0 0.764706 0 0 0 0 0.976471 0 0 0 1 0"/>
<feBlend mode="normal" in2="BackgroundImageFix" result="effect1_dropShadow_423_415"/>
<feBlend mode="normal" in="SourceGraphic" in2="effect1_dropShadow_423_415" result="shape"/>
<feColorMatrix in="SourceAlpha" type="matrix" values="0 0 0 0 0 0 0 0 0 0 0 0 0 0 0 0 0 0 127 0" result="hardAlpha"/>
<feOffset dx="9" dy="9"/>
<feGaussianBlur stdDeviation="5"/>
<feComposite in2="hardAlpha" operator="arithmetic" k2="-1" k3="1"/>
<feColorMatrix type="matrix" values="0 0 0 0 0 0 0 0 0 0 0 0 0 0 0 0 0 0 1 0"/>
<feBlend mode="normal" in2="shape" result="effect2_innerShadow_423_415"/>
</filter>
<filter id="filter1_di_423_415" x="13.8667" y="67.739" width="52.2734" height="60.5085" filterUnits="userSpaceOnUse" color-interpolation-filters="sRGB">
<feFlood flood-opacity="0" result="BackgroundImageFix"/>
<feColorMatrix in="SourceAlpha" type="matrix" values="0 0 0 0 0 0 0 0 0 0 0 0 0 0 0 0 0 0 127 0" result="hardAlpha"/>
<feOffset dx="5" dy="15"/>
<feGaussianBlur stdDeviation="3"/>
<feComposite in2="hardAlpha" operator="out"/>
<feColorMatrix type="matrix" values="0 0 0 0 0.741176 0 0 0 0 0.764706 0 0 0 0 0.976471 0 0 0 1 0"/>
<feBlend mode="normal" in2="BackgroundImageFix" result="effect1_dropShadow_423_415"/>
<feBlend mode="normal" in="SourceGraphic" in2="effect1_dropShadow_423_415" result="shape"/>
<feColorMatrix in="SourceAlpha" type="matrix" values="0 0 0 0 0 0 0 0 0 0 0 0 0 0 0 0 0 0 127 0" result="hardAlpha"/>
<feOffset dx="9" dy="9"/>
<feGaussianBlur stdDeviation="5"/>
<feComposite in2="hardAlpha" operator="arithmetic" k2="-1" k3="1"/>
<feColorMatrix type="matrix" values="0 0 0 0 0 0 0 0 0 0 0 0 0 0 0 0 0 0 1 0"/>
<feBlend mode="normal" in2="shape" result="effect2_innerShadow_423_415"/>
</filter>
</defs>
</svg>
