<svg width="104" height="106" viewBox="0 0 104 106" fill="none" xmlns="http://www.w3.org/2000/svg">
<g filter="url(#filter0_di_423_414)">
<path d="M48.8551 36.506C46.6249 37.9672 44.0008 38.7483 41.3149 38.7483C37.7127 38.7483 34.2618 37.345 31.7206 34.8531C29.18 32.3618 27.7563 28.9872 27.7563 25.4727C27.7563 22.8515 28.5489 20.2874 30.0363 18.1048C31.5238 15.9218 33.6401 14.2175 36.1199 13.2103C38.5998 12.2031 41.3297 11.9392 43.9637 12.453C46.5975 12.9667 49.0142 14.2342 50.9092 16.0924C52.8039 17.9503 54.092 20.3151 54.6136 22.8865C55.1352 25.4578 54.8677 28.1232 53.844 30.5466C52.8202 32.9702 51.0851 35.0449 48.8551 36.506Z" fill="#555BFC" stroke="white" stroke-width="2"/>
<path d="M75.9502 44.2453C74.3185 45.3144 72.3982 45.8861 70.4321 45.8861C67.7952 45.8861 65.2701 44.8588 63.4114 43.0362L62.7113 43.7502L63.4114 43.0362C61.5533 41.2143 60.5132 38.7474 60.5132 36.1795C60.5132 34.2641 61.0923 32.3901 62.1797 30.7943C63.2673 29.1982 64.8152 27.9513 66.6299 27.2143C68.4448 26.4771 70.4429 26.284 72.3708 26.66C74.2986 27.036 76.0668 27.9637 77.4528 29.3227C78.8385 30.6815 79.7799 32.4104 80.1611 34.2895C80.5423 36.1685 80.3468 38.1164 79.5986 39.8876C78.8503 41.6591 77.5817 43.1763 75.9502 44.2453Z" fill="#555BFC" stroke="white" stroke-width="2"/>
<mask id="path-3-inside-1_423_414" fill="white">
<path d="M84.9908 71.8685C85.9561 71.8685 86.8819 71.4925 87.5644 70.8232C88.247 70.1539 88.6305 69.2462 88.6305 68.2996C88.6275 64.9641 87.6713 61.6962 85.8702 58.8666C84.0691 56.037 81.4953 53.7591 78.4408 52.2912C75.3862 50.8234 71.9733 50.2244 68.5892 50.5622C65.2051 50.9 61.9852 52.1612 59.2951 54.2025C55.7301 50.7205 51.1934 48.3516 46.2573 47.3946C41.3211 46.4375 36.2064 46.9351 31.5583 48.8247C26.9101 50.7142 22.9367 53.911 20.139 58.012C17.3413 62.1131 15.8447 66.9346 15.8379 71.8685C15.8379 72.815 16.2214 73.7228 16.9039 74.3921C17.5865 75.0614 18.5122 75.4374 19.4775 75.4374H63.1531C64.1184 75.4374 65.0441 75.0614 65.7267 74.3921C66.4092 73.7228 66.7927 72.815 66.7927 71.8685"/>
</mask>
<path d="M84.9908 71.8685C85.9561 71.8685 86.8819 71.4925 87.5644 70.8232C88.247 70.1539 88.6305 69.2462 88.6305 68.2996C88.6275 64.9641 87.6713 61.6962 85.8702 58.8666C84.0691 56.037 81.4953 53.7591 78.4408 52.2912C75.3862 50.8234 71.9733 50.2244 68.5892 50.5622C65.2051 50.9 61.9852 52.1612 59.2951 54.2025C55.7301 50.7205 51.1934 48.3516 46.2573 47.3946C41.3211 46.4375 36.2064 46.9351 31.5583 48.8247C26.9101 50.7142 22.9367 53.911 20.139 58.012C17.3413 62.1131 15.8447 66.9346 15.8379 71.8685C15.8379 72.815 16.2214 73.7228 16.9039 74.3921C17.5865 75.0614 18.5122 75.4374 19.4775 75.4374H63.1531C64.1184 75.4374 65.0441 75.0614 65.7267 74.3921C66.4092 73.7228 66.7927 72.815 66.7927 71.8685" fill="#555BFC"/>
<path d="M88.6305 68.2996H90.6305V68.2979L88.6305 68.2996ZM59.2951 54.2025L57.8976 55.6333L59.1308 56.8377L60.504 55.7957L59.2951 54.2025ZM15.8379 71.8685L13.8379 71.8658V71.8685H15.8379ZM84.9908 73.8685C86.474 73.8685 87.9042 73.2911 88.9647 72.2512L86.1642 69.3952C85.8596 69.6939 85.4382 69.8685 84.9908 69.8685V73.8685ZM88.9647 72.2512C90.0266 71.21 90.6305 69.7894 90.6305 68.2996H86.6305C86.6305 68.7029 86.4675 69.0978 86.1642 69.3952L88.9647 72.2512ZM90.6305 68.2979C90.6272 64.5803 89.5613 60.9408 87.5574 57.7927L84.183 59.9406C85.7813 62.4516 86.6279 65.348 86.6305 68.3014L90.6305 68.2979ZM87.5574 57.7927C85.5538 54.6449 82.6941 52.1162 79.307 50.4886L77.5745 54.0939C80.2965 55.4019 82.5844 57.4291 84.183 59.9406L87.5574 57.7927ZM79.307 50.4886C75.9202 48.8611 72.1387 48.1979 68.3905 48.5721L68.7878 52.5523C71.8079 52.2508 74.8523 52.7857 77.5745 54.0939L79.307 50.4886ZM68.3905 48.5721C64.6422 48.9463 61.0722 50.3434 58.0861 52.6093L60.504 55.7957C62.8983 53.979 65.7679 52.8538 68.7878 52.5523L68.3905 48.5721ZM60.6925 52.7717C56.8453 49.0141 51.9542 46.4619 46.638 45.4311L45.8766 49.358C50.4327 50.2414 54.6149 52.427 57.8976 55.6333L60.6925 52.7717ZM46.638 45.4311C41.3219 44.4004 35.8133 44.936 30.8051 46.9719L32.3114 50.6774C36.5996 48.9342 41.3202 48.4746 45.8766 49.358L46.638 45.4311ZM30.8051 46.9719C25.7966 49.0079 21.5088 52.4552 18.4868 56.885L21.7912 59.1391C24.3646 55.3669 28.0237 52.4205 32.3114 50.6774L30.8051 46.9719ZM18.4868 56.885C15.4645 61.3152 13.8453 66.528 13.8379 71.8658L17.8379 71.8713C17.8441 67.3411 19.2181 62.9109 21.7912 59.1391L18.4868 56.885ZM13.8379 71.8685C13.8379 73.3583 14.4418 74.7789 15.5036 75.8201L18.3042 72.9641C18.0009 72.6667 17.8379 72.2718 17.8379 71.8685H13.8379ZM15.5036 75.8201C16.5642 76.86 17.9943 77.4374 19.4775 77.4374V73.4374C19.0301 73.4374 18.6088 73.2628 18.3042 72.9641L15.5036 75.8201ZM19.4775 77.4374H63.1531V73.4374H19.4775V77.4374ZM63.1531 77.4374C64.6363 77.4374 66.0664 76.86 67.1269 75.8201L64.3264 72.9641C64.0218 73.2628 63.6005 73.4374 63.1531 73.4374V77.4374ZM67.1269 75.8201C68.1888 74.7789 68.7927 73.3583 68.7927 71.8685H64.7927C64.7927 72.2718 64.6297 72.6667 64.3264 72.9641L67.1269 75.8201Z" fill="white" mask="url(#path-3-inside-1_423_414)"/>
</g>
<defs>
<filter id="filter0_di_423_414" x="0.837891" y="11.1971" width="102.792" height="94.2402" filterUnits="userSpaceOnUse" color-interpolation-filters="sRGB">
<feFlood flood-opacity="0" result="BackgroundImageFix"/>
<feColorMatrix in="SourceAlpha" type="matrix" values="0 0 0 0 0 0 0 0 0 0 0 0 0 0 0 0 0 0 127 0" result="hardAlpha"/>
<feOffset dy="15"/>
<feGaussianBlur stdDeviation="7.5"/>
<feComposite in2="hardAlpha" operator="out"/>
<feColorMatrix type="matrix" values="0 0 0 0 0.741176 0 0 0 0 0.764706 0 0 0 0 0.976471 0 0 0 1 0"/>
<feBlend mode="normal" in2="BackgroundImageFix" result="effect1_dropShadow_423_414"/>
<feBlend mode="normal" in="SourceGraphic" in2="effect1_dropShadow_423_414" result="shape"/>
<feColorMatrix in="SourceAlpha" type="matrix" values="0 0 0 0 0 0 0 0 0 0 0 0 0 0 0 0 0 0 127 0" result="hardAlpha"/>
<feOffset dx="9" dy="9"/>
<feGaussianBlur stdDeviation="4.5"/>
<feComposite in2="hardAlpha" operator="arithmetic" k2="-1" k3="1"/>
<feColorMatrix type="matrix" values="0 0 0 0 0 0 0 0 0 0 0 0 0 0 0 0 0 0 1 0"/>
<feBlend mode="normal" in2="shape" result="effect2_innerShadow_423_414"/>
</filter>
</defs>
</svg>
