<svg width="102" height="118" viewBox="0 0 102 118" fill="none" xmlns="http://www.w3.org/2000/svg">
<g filter="url(#filter0_di_422_421)">
<path d="M22.4716 11.1649L50.5159 0.554932L78.5602 11.1649C79.2872 11.4398 79.9138 11.932 80.3562 12.5756C80.7986 13.2193 81.0358 13.9838 81.0361 14.767V31.342C81.0361 43.5683 75.8019 55.202 66.6802 63.2528L50.5159 77.5226L34.3516 63.2528C29.8425 59.273 26.229 54.3669 23.753 48.8633C21.2771 43.3597 19.996 37.3858 19.9956 31.342V14.767C19.9959 13.9838 20.2331 13.2193 20.6755 12.5756C21.1179 11.932 21.7445 11.4398 22.4716 11.1649ZM46.4681 40.0663L41.0737 34.6324C40.7217 34.2648 40.3008 33.9716 39.8353 33.77C39.3699 33.5683 38.8693 33.4621 38.3627 33.4577C37.8561 33.4532 37.3538 33.5506 36.8849 33.7441C36.4161 33.9376 35.9901 34.2234 35.6319 34.5847C35.2737 34.946 34.9904 35.3757 34.7986 35.8487C34.6068 36.3216 34.5103 36.8284 34.5147 37.3393C34.5191 37.8503 34.6243 38.3553 34.8243 38.8248C35.0242 39.2944 35.3148 39.719 35.6792 40.074L43.7709 48.2364C44.4863 48.9579 45.4565 49.3632 46.4681 49.3632C47.4797 49.3632 48.4499 48.9579 49.1653 48.2364L65.3525 31.9077C65.7169 31.5527 66.0075 31.1281 66.2075 30.6586C66.4074 30.189 66.5127 29.6841 66.5171 29.1731C66.5215 28.6621 66.4249 28.1553 66.2331 27.6824C66.0413 27.2094 65.758 26.7797 65.3998 26.4184C65.0416 26.0571 64.6157 25.7713 64.1468 25.5778C63.678 25.3843 63.1756 25.287 62.669 25.2914C62.1625 25.2958 61.6619 25.402 61.1964 25.6037C60.731 25.8054 60.31 26.0986 59.9581 26.4661L46.4681 40.074V40.0663Z" fill="#555BFC"/>
<path d="M23.0021 12.568L23.0023 12.5679L50.5159 2.15869L78.0294 12.5679L78.0296 12.568C78.4691 12.7341 78.85 13.0325 79.1201 13.4253C79.3901 13.8182 79.5358 14.2863 79.5361 14.767C79.5361 14.7672 79.5361 14.7674 79.5361 14.7676V31.342C79.5361 43.1404 74.4849 54.3637 65.6876 62.1282L65.6875 62.1283L50.5159 75.5218L35.3443 62.1283L35.3442 62.1282C30.9956 58.29 27.5097 53.5577 25.121 48.2479C22.7322 42.9381 21.496 37.174 21.4956 31.342C21.4956 31.342 21.4956 31.342 21.4956 31.3419L21.4956 14.7676C21.4956 14.7675 21.4956 14.7674 21.4956 14.7673C21.4956 14.7672 21.4956 14.7671 21.4956 14.767C21.4959 14.2863 21.6416 13.8182 21.9117 13.4253C22.1817 13.0325 22.5626 12.7341 23.0021 12.568ZM58.8843 25.4186L46.4712 37.9403L42.147 33.5844C41.6594 33.078 41.0766 32.6731 40.4317 32.3936C39.7823 32.1122 39.0834 31.9639 38.3759 31.9577C37.6683 31.9515 36.9669 32.0876 36.3127 32.3575C35.6585 32.6275 35.0651 33.0259 34.5667 33.5287C34.0682 34.0314 33.6748 34.6286 33.4086 35.2849C33.1424 35.9412 33.0086 36.6439 33.0147 37.3523C33.0208 38.0606 33.1667 38.7609 33.4442 39.4125C33.7198 40.0598 34.12 40.6465 34.6224 41.1386L42.7056 49.2925L42.7058 49.2926C43.7015 50.2967 45.0545 50.8632 46.4681 50.8632C47.8817 50.8632 49.2348 50.2967 50.2305 49.2926L50.2306 49.2925L66.4094 32.9723C66.9117 32.4802 67.3119 31.8935 67.5876 31.2463C67.865 30.5947 68.0109 29.8943 68.017 29.186C68.0231 28.4777 67.8893 27.7749 67.6231 27.1186C67.3569 26.4623 66.9635 25.8651 66.4651 25.3624C65.9667 24.8596 65.3732 24.4612 64.7191 24.1913C64.0649 23.9213 63.3634 23.7852 62.6559 23.7914C61.9483 23.7977 61.2494 23.946 60.6 24.2273C59.955 24.5069 59.372 24.912 58.8843 25.4186Z" stroke="#CED2F4" stroke-width="3"/>
</g>
<defs>
<filter id="filter0_di_422_421" x="-0.00439453" y="0.554932" width="101.041" height="116.968" filterUnits="userSpaceOnUse" color-interpolation-filters="sRGB">
<feFlood flood-opacity="0" result="BackgroundImageFix"/>
<feColorMatrix in="SourceAlpha" type="matrix" values="0 0 0 0 0 0 0 0 0 0 0 0 0 0 0 0 0 0 127 0" result="hardAlpha"/>
<feOffset dy="20"/>
<feGaussianBlur stdDeviation="10"/>
<feComposite in2="hardAlpha" operator="out"/>
<feColorMatrix type="matrix" values="0 0 0 0 0.741176 0 0 0 0 0.764706 0 0 0 0 0.976471 0 0 0 1 0"/>
<feBlend mode="normal" in2="BackgroundImageFix" result="effect1_dropShadow_422_421"/>
<feBlend mode="normal" in="SourceGraphic" in2="effect1_dropShadow_422_421" result="shape"/>
<feColorMatrix in="SourceAlpha" type="matrix" values="0 0 0 0 0 0 0 0 0 0 0 0 0 0 0 0 0 0 127 0" result="hardAlpha"/>
<feOffset dx="9" dy="9"/>
<feGaussianBlur stdDeviation="10"/>
<feComposite in2="hardAlpha" operator="arithmetic" k2="-1" k3="1"/>
<feColorMatrix type="matrix" values="0 0 0 0 0.2 0 0 0 0 0.2 0 0 0 0 0.2 0 0 0 1 0"/>
<feBlend mode="normal" in2="shape" result="effect2_innerShadow_422_421"/>
</filter>
</defs>
</svg>
