<svg width="20" height="22" viewBox="0 0 20 22" fill="none" xmlns="http://www.w3.org/2000/svg">
<path d="M5.00065 19.3332H15.0007C15.4427 19.3332 15.8666 19.1576 16.1792 18.845C16.4917 18.5325 16.6673 18.1085 16.6673 17.6665V7.6665L11.6673 2.6665H5.00065C4.55862 2.6665 4.1347 2.8421 3.82214 3.15466C3.50958 3.46722 3.33398 3.89114 3.33398 4.33317V17.6665C3.33398 18.1085 3.50958 18.5325 3.82214 18.845C4.1347 19.1576 4.55862 19.3332 5.00065 19.3332ZM10.834 4.33317L15.0007 8.49984H10.834V4.33317ZM7.08398 10.1665C7.24819 10.1666 7.41078 10.199 7.56247 10.2618C7.71415 10.3247 7.85197 10.4169 7.96804 10.533C8.08411 10.6492 8.17617 10.7871 8.23896 10.9388C8.30175 11.0905 8.33404 11.2531 8.33398 11.4173C8.33393 11.5815 8.30153 11.7441 8.23864 11.8958C8.17575 12.0475 8.0836 12.1853 7.96745 12.3014C7.8513 12.4175 7.71342 12.5095 7.5617 12.5723C7.40997 12.6351 7.24736 12.6674 7.08315 12.6673C6.75152 12.6672 6.43352 12.5354 6.1991 12.3008C5.96467 12.0662 5.83304 11.7481 5.83315 11.4165C5.83326 11.0849 5.96511 10.7669 6.19968 10.5324C6.43426 10.298 6.75235 10.1664 7.08398 10.1665ZM7.50065 14.3332L8.83148 15.469L10.834 11.8332L14.1673 16.8332H5.83398L7.50065 14.3332Z" fill="black"/>
</svg>
