<svg width="30" height="30" viewBox="0 0 30 30" fill="none" xmlns="http://www.w3.org/2000/svg">
<path d="M4.5 13.1248C6.15469 13.1248 7.5 11.4431 7.5 9.37476C7.5 7.3064 6.15469 5.62476 4.5 5.62476C2.84531 5.62476 1.5 7.3064 1.5 9.37476C1.5 11.4431 2.84531 13.1248 4.5 13.1248ZM25.5 13.1248C27.1547 13.1248 28.5 11.4431 28.5 9.37476C28.5 7.3064 27.1547 5.62476 25.5 5.62476C23.8453 5.62476 22.5 7.3064 22.5 9.37476C22.5 11.4431 23.8453 13.1248 25.5 13.1248ZM27 14.9998H24C23.175 14.9998 22.4297 15.4158 21.8859 16.0896C23.775 17.3845 25.1156 19.7224 25.4062 22.4998H28.5C29.3297 22.4998 30 21.6619 30 20.6248V18.7498C30 16.6814 28.6547 14.9998 27 14.9998ZM15 14.9998C17.9016 14.9998 20.25 12.0642 20.25 8.43726C20.25 4.8103 17.9016 1.87476 15 1.87476C12.0984 1.87476 9.75 4.8103 9.75 8.43726C9.75 12.0642 12.0984 14.9998 15 14.9998ZM18.6 16.8748H18.2109C17.2359 17.4607 16.1531 17.8123 15 17.8123C13.8469 17.8123 12.7687 17.4607 11.7891 16.8748H11.4C8.41875 16.8748 6 19.8982 6 23.6248V25.3123C6 26.865 7.00781 28.1248 8.25 28.1248H21.75C22.9922 28.1248 24 26.865 24 25.3123V23.6248C24 19.8982 21.5812 16.8748 18.6 16.8748ZM8.11406 16.0896C7.57031 15.4158 6.825 14.9998 6 14.9998H3C1.34531 14.9998 0 16.6814 0 18.7498V20.6248C0 21.6619 0.670312 22.4998 1.5 22.4998H4.58906C4.88438 19.7224 6.225 17.3845 8.11406 16.0896Z" fill="#6C757D"/>
</svg>
