<svg width="25" height="23" viewBox="0 0 25 23" fill="none" xmlns="http://www.w3.org/2000/svg">
<path d="M3.75 9.93729C5.12891 9.93729 6.25 8.53592 6.25 6.81229C6.25 5.08865 5.12891 3.68729 3.75 3.68729C2.37109 3.68729 1.25 5.08865 1.25 6.81229C1.25 8.53592 2.37109 9.93729 3.75 9.93729ZM21.25 9.93729C22.6289 9.93729 23.75 8.53592 23.75 6.81229C23.75 5.08865 22.6289 3.68729 21.25 3.68729C19.8711 3.68729 18.75 5.08865 18.75 6.81229C18.75 8.53592 19.8711 9.93729 21.25 9.93729ZM22.5 11.4998H20C19.3125 11.4998 18.6914 11.8465 18.2383 12.408C19.8125 13.4871 20.9297 15.4353 21.1719 17.7498H23.75C24.4414 17.7498 25 17.0515 25 16.1873V14.6248C25 12.9012 23.8789 11.4998 22.5 11.4998ZM12.5 11.4998C14.918 11.4998 16.875 9.0535 16.875 6.03104C16.875 3.00858 14.918 0.562286 12.5 0.562286C10.082 0.562286 8.125 3.00858 8.125 6.03104C8.125 9.0535 10.082 11.4998 12.5 11.4998ZM15.5 13.0623H15.1758C14.3633 13.5506 13.4609 13.8435 12.5 13.8435C11.5391 13.8435 10.6406 13.5506 9.82422 13.0623H9.5C7.01562 13.0623 5 15.5818 5 18.6873V20.0935C5 21.3875 5.83984 22.4373 6.875 22.4373H18.125C19.1602 22.4373 20 21.3875 20 20.0935V18.6873C20 15.5818 17.9844 13.0623 15.5 13.0623ZM6.76172 12.408C6.30859 11.8465 5.6875 11.4998 5 11.4998H2.5C1.12109 11.4998 0 12.9012 0 14.6248V16.1873C0 17.0515 0.558594 17.7498 1.25 17.7498H3.82422C4.07031 15.4353 5.1875 13.4871 6.76172 12.408Z" fill="white"/>
</svg>
