<svg width="23" height="23" viewBox="0 0 23 23" fill="none" xmlns="http://www.w3.org/2000/svg">
<path d="M3.45 10.0623C4.71859 10.0623 5.75 8.77306 5.75 7.18732C5.75 5.60157 4.71859 4.31232 3.45 4.31232C2.18141 4.31232 1.15 5.60157 1.15 7.18732C1.15 8.77306 2.18141 10.0623 3.45 10.0623ZM19.55 10.0623C20.8186 10.0623 21.85 8.77306 21.85 7.18732C21.85 5.60157 20.8186 4.31232 19.55 4.31232C18.2814 4.31232 17.25 5.60157 17.25 7.18732C17.25 8.77306 18.2814 10.0623 19.55 10.0623ZM20.7 11.4998H18.4C17.7675 11.4998 17.1961 11.8188 16.7792 12.3354C18.2275 13.3281 19.2553 15.1205 19.4781 17.2498H21.85C22.4861 17.2498 23 16.6074 23 15.8123V14.3748C23 12.7891 21.9686 11.4998 20.7 11.4998ZM11.5 11.4998C13.7245 11.4998 15.525 9.24923 15.525 6.46857C15.525 3.6879 13.7245 1.43732 11.5 1.43732C9.27547 1.43732 7.475 3.6879 7.475 6.46857C7.475 9.24923 9.27547 11.4998 11.5 11.4998ZM14.26 12.9373H13.9617C13.2142 13.3865 12.3841 13.6561 11.5 13.6561C10.6159 13.6561 9.78937 13.3865 9.03828 12.9373H8.74C6.45437 12.9373 4.6 15.2553 4.6 18.1123V19.4061C4.6 20.5965 5.37266 21.5623 6.325 21.5623H16.675C17.6273 21.5623 18.4 20.5965 18.4 19.4061V18.1123C18.4 15.2553 16.5456 12.9373 14.26 12.9373ZM6.22078 12.3354C5.80391 11.8188 5.2325 11.4998 4.6 11.4998H2.3C1.03141 11.4998 0 12.7891 0 14.3748V15.8123C0 16.6074 0.513906 17.2498 1.15 17.2498H3.51828C3.74469 15.1205 4.7725 13.3281 6.22078 12.3354Z" fill="#333333"/>
</svg>
