<svg width="226" height="222" viewBox="0 0 226 222" fill="none" xmlns="http://www.w3.org/2000/svg">
<g filter="url(#filter0_di_425_454)">
<ellipse cx="103.073" cy="101.307" rx="102.374" ry="100.384" fill="white"/>
<path d="M163.757 46.8884L112.414 153.142L163.757 46.8884Z" fill="black"/>
<path d="M119.206 54.3518L114.922 67.8414L119.206 54.3518ZM104.441 100.846L103.532 103.707L100.08 114.578L81.0234 174.588" fill="black"/>
<path d="M119.206 54.3518L114.922 67.8414M104.441 100.846L103.532 103.707L100.08 114.578L81.0234 174.588" stroke="black" stroke-width="1.16913"/>
<path d="M114.93 67.811H150.234" stroke="black" stroke-width="1.36922"/>
<path d="M104.445 100.83H150.234" stroke="black" stroke-width="1.40276"/>
<path d="M150.234 67.7307C154.625 67.7307 158.835 69.4623 161.939 72.5446C165.044 75.6268 166.788 79.8073 166.788 84.1663C166.788 88.5252 165.044 92.7057 161.939 95.7879C158.835 98.8702 154.625 100.602 150.234 100.602" stroke="black" stroke-width="1.36922"/>
<path d="M81.0234 174.587L116.981 114.748" stroke="black" stroke-width="1.36922"/>
<path d="M155.593 54.6547C160.193 54.6547 164.713 56.0457 168.696 58.6879C172.68 61.3301 175.989 65.1304 178.289 69.7068C180.589 74.2832 181.8 79.4745 181.8 84.7589C181.8 90.0433 180.589 95.2346 178.289 99.811C175.989 104.387 172.68 108.188 168.696 110.83C164.713 113.472 160.193 114.863 155.593 114.863" stroke="black" stroke-width="1.86921"/>
<path d="M119.205 54.3518L155.594 54.6555" stroke="black" stroke-width="1.36922"/>
<path d="M155.594 114.864L116.992 114.665" stroke="black" stroke-width="1.36922"/>
<path d="M82.6692 170.565C82.6724 170.505 87.612 154.918 93.646 135.927L104.617 101.397L128.996 101.141C146.3 100.959 153.868 100.73 155.074 100.354C161.18 98.4454 166.001 92.8318 166.814 86.6842C167.485 81.6066 166.321 77.4072 163.169 73.5438C161.069 70.9703 158.935 69.4638 155.805 68.347C153.675 67.5867 152.036 67.5236 134.431 67.5236C118.962 67.5236 115.4 67.4166 115.554 66.9564C115.659 66.6445 116.566 63.7762 117.57 60.5823L119.395 54.7754L139.244 54.9542C158.141 55.1244 159.237 55.1783 162.087 56.077C172.969 59.5084 180.704 70.4463 181.28 83.2178C181.53 88.7595 180.773 92.7922 178.487 98.1004C175.539 104.947 170.377 110.147 163.795 112.9L160.999 114.07L138.89 114.199L116.78 114.329L99.8545 142.502C84.9826 167.256 82.6414 171.079 82.6692 170.565Z" fill="black" stroke="black" stroke-width="2.02009"/>
<path d="M81.537 173.393C81.5437 173.37 81.7514 172.714 81.9984 171.935C82.4055 170.65 82.4493 170.526 82.4671 170.61C82.4959 170.745 82.5853 170.825 82.7063 170.825C82.7996 170.825 82.8177 170.811 82.9849 170.612C83.3427 170.187 84.4823 168.384 86.7613 164.637C87.1268 164.036 87.5826 163.287 87.774 162.973C87.9655 162.658 88.1364 162.395 88.1537 162.389C88.1711 162.383 88.1494 162.437 88.1055 162.51C86.6963 164.863 81.5682 173.387 81.5501 173.406C81.5326 173.425 81.5285 173.421 81.537 173.393Z" fill="black" stroke="black" stroke-width="0.126256"/>
<path d="M139.937 114.617C135.452 114.591 130.314 114.567 128.518 114.565C126.722 114.563 125.26 114.552 125.27 114.541C125.288 114.52 130.334 114.485 147.72 114.385C153.632 114.351 158.643 114.329 158.856 114.336L159.243 114.348L158.755 114.416C156.707 114.702 155.947 114.711 139.937 114.617Z" fill="black" stroke="black" stroke-width="0.178553"/>
<path d="M158.326 55.1288C157.612 55.066 156.51 55.0068 155.273 54.9649C154.893 54.952 154.428 54.938 154.191 54.9323C154.107 54.9302 154.028 54.9278 154.014 54.9267L153.99 54.9249V54.8584V54.792L154.034 54.7919C154.156 54.7916 155.474 54.8026 155.529 54.8045L155.592 54.8066V54.8315C155.592 54.8511 155.593 54.8569 155.597 54.8585C155.6 54.8597 155.675 54.8606 155.766 54.8606C156.176 54.8607 156.722 54.882 157.214 54.9172C157.594 54.9444 157.924 54.9767 158.374 55.0305L158.424 55.0364V55.0871C158.424 55.1257 158.424 55.1377 158.42 55.1374C158.418 55.1371 158.376 55.1332 158.326 55.1288Z" fill="black" stroke="black" stroke-width="0.015782"/>
<path d="M146.327 54.8039C145.738 54.7971 145.511 54.7947 144.887 54.7883C144.563 54.7849 144.198 54.7812 144.075 54.7798C143.952 54.7783 143.815 54.7774 143.771 54.7774H143.69V54.7407V54.7041L143.828 54.7056C143.903 54.7065 144.563 54.7121 145.294 54.718C146.025 54.7239 146.669 54.7295 146.724 54.7303L146.826 54.7318V54.7702V54.8087L146.76 54.8084C146.724 54.8082 146.529 54.806 146.327 54.8039Z" fill="black" stroke="black" stroke-width="0.0111596"/>
<path d="M42.8008 155.224L94.1435 48.9706L42.8008 155.224Z" fill="black"/>
<path d="M87.3521 147.76L91.6358 134.271L87.3521 147.76ZM102.117 101.266L103.025 98.405L106.477 87.5344L125.534 27.5248" fill="black"/>
<path d="M87.3521 147.76L91.6358 134.271M102.117 101.266L103.025 98.405L106.477 87.5344L125.534 27.5248" stroke="black" stroke-width="1.16913"/>
<path d="M91.627 134.301H56.3235" stroke="black" stroke-width="1.36922"/>
<path d="M102.112 101.282H56.3228" stroke="black" stroke-width="1.40276"/>
<path d="M56.3237 134.382C51.9335 134.382 47.7232 132.65 44.6189 129.568C41.5145 126.485 39.7705 122.305 39.7705 117.946C39.7705 113.587 41.5145 109.407 44.6189 106.324C47.7232 103.242 51.9335 101.511 56.3237 101.511" stroke="black" stroke-width="1.36922"/>
<path d="M125.534 27.5248L89.5771 87.3647" stroke="black" stroke-width="1.36922"/>
<path d="M50.9639 147.458C46.3637 147.458 41.8446 146.067 37.8607 143.425C33.8768 140.782 30.5686 136.982 28.2685 132.406C25.9684 127.829 24.7575 122.638 24.7575 117.354C24.7575 112.069 25.9684 106.878 28.2685 102.302C30.5686 97.7251 33.8768 93.9248 37.8607 91.2826C41.8446 88.6404 46.3637 87.2494 50.9639 87.2494" stroke="black" stroke-width="1.86921"/>
<path d="M87.3525 147.761L50.964 147.457" stroke="black" stroke-width="1.36922"/>
<path d="M50.964 87.2489L89.5654 87.4478" stroke="black" stroke-width="1.36922"/>
<path d="M123.889 31.5468C123.885 31.6069 118.946 47.1943 112.912 66.1855L101.941 100.715L77.5616 100.971C60.2581 101.153 52.6894 101.382 51.4837 101.759C45.378 103.667 40.5567 109.28 39.7437 115.428C39.0723 120.506 40.2372 124.705 43.3889 128.568C45.4883 131.142 47.623 132.648 50.7523 133.765C52.8829 134.526 54.5218 134.589 72.1265 134.589C87.5961 134.589 91.1573 134.696 91.0033 135.156C90.899 135.468 89.9921 138.336 88.9881 141.53L87.1627 147.337L67.3136 147.158C48.4172 146.988 47.3208 146.934 44.4707 146.035C33.5889 142.604 25.8541 131.666 25.278 118.894C25.028 113.353 25.7847 109.32 28.0705 104.012C31.0187 97.1652 36.1804 91.9656 42.7625 89.2121L45.5585 88.0424L67.668 87.9128L89.7774 87.7833L106.703 59.6104C121.575 34.8565 123.916 31.0332 123.889 31.5468Z" fill="black" stroke="black" stroke-width="2.02009"/>
<path d="M125.021 28.7195C125.015 28.7421 124.807 29.3982 124.56 30.1777C124.153 31.4625 124.109 31.5862 124.091 31.5026C124.062 31.3678 123.973 31.2874 123.852 31.2874C123.758 31.2874 123.74 31.301 123.573 31.5C123.215 31.9253 122.076 33.7284 119.797 37.4749C119.431 38.0758 118.976 38.8249 118.784 39.1395C118.593 39.4541 118.422 39.7169 118.404 39.7235C118.387 39.7296 118.409 39.6756 118.453 39.6023C119.862 37.2494 124.99 28.7254 125.008 28.7059C125.025 28.6872 125.029 28.6908 125.021 28.7195Z" fill="black" stroke="black" stroke-width="0.126256"/>
<path d="M66.6203 87.4963C71.1049 87.5225 76.2435 87.5458 78.0395 87.5481C79.8355 87.5511 81.2971 87.5617 81.2876 87.5722C81.2692 87.5934 76.2229 87.6284 58.8371 87.7282C52.9256 87.7621 47.9146 87.7844 47.7014 87.7776L47.314 87.7655L47.8025 87.6972C49.8504 87.4109 50.6103 87.4026 66.6203 87.4963Z" fill="black" stroke="black" stroke-width="0.178553"/>
<path d="M48.2313 146.984C48.9453 147.047 50.0474 147.106 51.2838 147.148C51.6637 147.16 52.1292 147.175 52.3663 147.181C52.4499 147.182 52.5293 147.185 52.5428 147.187L52.5674 147.188V147.255V147.321L52.5235 147.321C52.4018 147.322 51.0831 147.311 51.0285 147.309L50.9654 147.308V147.283C50.9654 147.263 50.9644 147.258 50.9608 147.256C50.9577 147.255 50.8821 147.254 50.7918 147.254C50.3813 147.254 49.836 147.233 49.3439 147.198C48.9634 147.17 48.6334 147.138 48.1832 147.084L48.1333 147.078V147.028C48.1333 146.989 48.1341 146.977 48.1379 146.977C48.1379 146.977 48.1826 146.982 48.2324 146.986L48.2313 146.984Z" fill="black" stroke="black" stroke-width="0.015782"/>
<path d="M60.2301 147.309C60.8191 147.316 61.0463 147.318 61.6705 147.324C61.9942 147.327 62.3595 147.332 62.4823 147.333C62.6051 147.335 62.7417 147.336 62.786 147.336H62.8665V147.373V147.41L62.7291 147.408C62.6536 147.407 61.9938 147.402 61.2629 147.396C60.5321 147.39 59.8884 147.384 59.8325 147.384L59.731 147.382V147.344V147.305L59.7967 147.306C59.833 147.306 60.0279 147.309 60.23 147.31L60.2301 147.309Z" fill="black" stroke="black" stroke-width="0.0111596"/>
<path d="M115.152 67.5923C115.162 67.5675 115.2 67.4409 115.237 67.311L115.304 67.0748L115.429 67.191C115.681 67.4271 116.323 67.5139 118.553 67.6134C118.68 67.619 117.963 67.6268 116.96 67.6305C115.514 67.6359 115.138 67.628 115.152 67.5923Z" fill="black" stroke="black" stroke-width="0.184419"/>
<path d="M91.2185 135.13C91.2166 135.001 91.1313 134.891 90.979 134.819C90.5794 134.632 89.2419 134.529 86.3291 134.464C86.1372 134.46 87.0881 134.456 88.7293 134.455L91.4473 134.454L91.4053 134.587C91.2423 135.103 91.2191 135.17 91.2185 135.13Z" fill="black" stroke="black" stroke-width="0.0461049"/>
<path d="M95.0024 101.056V100.992L95.3464 100.992C95.5356 100.992 96.1349 100.986 96.6782 100.98C99.1279 100.951 102.073 100.924 102.081 100.931C102.085 100.935 102.076 100.979 102.06 101.029L102.031 101.12H98.5168H95.0024L95.0024 101.056Z" fill="black" stroke="black" stroke-width="0.0652021"/>
<path d="M104.462 101.187C104.466 101.182 104.482 101.135 104.498 101.085L104.527 100.992H109.908H115.289V101.035V101.077L114.427 101.086C113.488 101.095 110.987 101.122 108.225 101.151C107.258 101.162 106.078 101.173 105.602 101.177C105.126 101.181 104.674 101.187 104.596 101.191C104.519 101.194 104.459 101.193 104.462 101.187Z" fill="black" stroke="black" stroke-width="0.0652021"/>
<path d="M156.959 55.0516C156.227 55.0061 154.525 54.9495 152.753 54.9117C150.983 54.874 147.733 54.829 144.618 54.7991C144.355 54.7966 144.17 54.7924 144.17 54.789C144.17 54.7855 144.284 54.7847 144.454 54.787C145.032 54.795 146.432 54.8094 146.629 54.8094H146.833V54.7711V54.7328L146.872 54.7328C146.894 54.7328 148.444 54.7458 150.318 54.7615C152.191 54.7773 153.782 54.7902 153.855 54.7902L153.986 54.7903V54.8605C153.986 54.9232 153.987 54.9308 153.998 54.9308C154.132 54.9312 155.559 54.9784 156.029 54.998C156.513 55.0181 157.053 55.0452 157.099 55.0517L157.136 55.057L157.088 55.0568C157.062 55.0568 157.004 55.0544 156.959 55.0516Z" fill="black" stroke="black" stroke-width="0.0326011"/>
<path d="M140.476 54.7616C139.649 54.7535 139.3 54.7503 137.2 54.7316C136.024 54.7211 134.989 54.7116 134.9 54.7105L134.739 54.7084V54.6692V54.63L134.861 54.6314C134.928 54.6322 136.276 54.6435 137.856 54.6565C139.436 54.6696 140.839 54.6812 140.975 54.6824L141.221 54.6845V54.7255V54.7665L141.055 54.7661C140.963 54.7659 140.703 54.7638 140.476 54.7616Z" fill="black" stroke="black" stroke-width="0.0163005"/>
<path d="M128.149 54.647C119.284 54.565 119.283 54.565 119.279 54.5608C119.276 54.5586 119.277 54.5455 119.281 54.5318C119.288 54.5082 119.3 54.507 119.502 54.5097C119.62 54.5113 123.069 54.539 127.168 54.5713C131.267 54.6036 134.646 54.6328 134.678 54.6363C134.729 54.6417 134.736 54.6465 134.736 54.6737V54.7048L134.385 54.703C134.192 54.7021 131.386 54.677 128.149 54.647Z" fill="black" stroke="black" stroke-width="0.0652021"/>
<path d="M143.636 54.7902C143.407 54.7877 142.852 54.7824 142.403 54.7785C141.953 54.7745 141.505 54.7696 141.406 54.7674L141.228 54.7635V54.726V54.6884L141.437 54.6885C141.589 54.6886 143.672 54.7061 143.685 54.7074C143.686 54.7074 143.687 54.7248 143.687 54.7458V54.7842H143.925C144.076 54.7842 144.164 54.7865 144.167 54.7906C144.17 54.7946 144.15 54.7965 144.111 54.7959C144.078 54.7953 143.864 54.7927 143.636 54.7902Z" fill="black" stroke="black" stroke-width="0.0326011"/>
<path d="M169.4 59.5672C169.215 59.4321 168.947 59.2425 168.74 59.1006C167.399 58.1844 166.014 57.417 164.547 56.7778C163.821 56.4618 163.037 56.1663 162.272 55.9204L162.134 55.8759L162.224 55.8747L162.315 55.8735L162.488 55.9281C163.987 56.4004 165.447 57.0282 166.865 57.8091C167.796 58.3221 168.757 58.9373 169.623 59.5752L169.692 59.626H169.586H169.48L169.4 59.5672Z" fill="black" stroke="black" stroke-width="0.0230524"/>
<path d="M161.949 55.8189C160.7 55.4296 159.78 55.2607 158.208 55.1326C157.959 55.1123 157.411 55.0752 157.198 55.0643C157.153 55.062 157.139 55.0599 157.139 55.0551C157.139 55.0502 157.146 55.0494 157.169 55.0514C157.186 55.0528 157.271 55.058 157.358 55.063C157.673 55.0809 158.06 55.1084 158.314 55.1307C158.373 55.1359 158.422 55.1388 158.424 55.1371C158.426 55.1353 158.429 55.1122 158.43 55.0856L158.432 55.0372L158.529 55.0498C159.618 55.1921 160.709 55.4156 161.773 55.7143C161.92 55.7557 162.149 55.8227 162.247 55.8532L162.295 55.8681L162.226 55.8685C162.187 55.8687 162.148 55.8699 162.139 55.8709C162.126 55.8723 162.077 55.859 161.949 55.8189Z" fill="black" stroke="black" stroke-width="0.0230524"/>
<path d="M116.314 67.6569C116.314 67.6535 116.398 67.6525 116.827 67.6507C117.503 67.648 118.12 67.6435 118.364 67.6395C118.534 67.6367 118.563 67.6356 118.573 67.6314C118.586 67.6252 118.588 67.6212 118.581 67.6093L118.576 67.5999L118.602 67.5999C118.616 67.5999 118.662 67.6013 118.705 67.6029C119.136 67.6192 120.028 67.642 120.744 67.655C120.844 67.6568 120.94 67.6586 120.958 67.659C120.976 67.6594 119.938 67.66 118.652 67.6604C116.685 67.661 116.314 67.6604 116.314 67.6569Z" fill="black" stroke="black" stroke-width="0.015625"/>
<path d="M115.106 67.6588C115.106 67.6576 115.111 67.6414 115.117 67.6228C115.125 67.5986 115.129 67.5909 115.13 67.5953C115.136 67.6113 115.139 67.6146 115.15 67.6196C115.175 67.6306 115.241 67.6373 115.38 67.6428C115.486 67.647 115.877 67.6518 116.115 67.6519C116.289 67.6519 116.313 67.6525 116.313 67.6565C116.313 67.6606 116.244 67.6611 115.709 67.6611C115.377 67.6611 115.106 67.6601 115.106 67.6588Z" fill="black" stroke="black" stroke-width="0.015625"/>
<path d="M55.6096 147.347C54.0716 147.334 52.7586 147.323 52.6917 147.323L52.5701 147.323V147.254V147.186L52.5562 147.184C52.5486 147.183 52.4795 147.181 52.4028 147.179L52.2632 147.175V147.168C52.2632 147.161 52.2642 147.161 52.2803 147.162C52.2897 147.163 52.3305 147.164 52.3709 147.165C52.4113 147.166 52.523 147.169 52.619 147.171C53.9386 147.206 55.7131 147.238 57.7235 147.263C58.0575 147.267 58.3634 147.272 58.4034 147.273L58.476 147.275V147.323V147.372L58.4409 147.372C58.4216 147.371 57.1475 147.36 55.6096 147.347Z" fill="black" stroke="black" stroke-width="0.015625"/>
<path d="M64.747 147.422C63.8959 147.414 63.1253 147.407 63.0346 147.407L62.8698 147.407V147.37V147.333L62.8257 147.333C62.8014 147.333 62.551 147.33 62.269 147.327C61.5139 147.318 60.68 147.309 60.1747 147.305L59.7291 147.301V147.34V147.379L59.5805 147.378C59.4988 147.377 59.2182 147.374 58.957 147.372L58.4819 147.368V147.321V147.273L58.5946 147.276C58.6565 147.277 58.9672 147.281 59.2851 147.284C59.6029 147.288 60.1068 147.293 60.4049 147.296C60.7029 147.3 61.5007 147.308 62.1776 147.315C62.8546 147.321 63.6714 147.33 63.9928 147.333C64.3142 147.336 64.9563 147.342 65.4195 147.345C65.8828 147.349 66.2861 147.353 66.3157 147.355L66.3696 147.359V147.398V147.437L66.332 147.437C66.3114 147.436 65.5981 147.429 64.747 147.422Z" fill="black" stroke="black" stroke-width="0.03125"/>
<path d="M70.5572 147.472C68.2743 147.453 66.3997 147.436 66.3915 147.435L66.3765 147.433V147.395V147.356L66.5023 147.356C66.5715 147.356 66.8244 147.358 67.0644 147.36C67.3044 147.363 69.1223 147.379 71.1043 147.397C73.0863 147.415 74.8082 147.43 74.9307 147.432L75.1535 147.435V147.471V147.507L74.9307 147.507C74.8082 147.506 72.8401 147.491 70.5572 147.472Z" fill="black" stroke="black" stroke-width="0.0220971"/>
<path d="M80.289 147.553C79.1526 147.544 78.2112 147.536 78.1969 147.535L78.1709 147.534V147.497V147.461L78.2246 147.461C78.3002 147.461 82.3579 147.497 82.4711 147.499L82.564 147.5V147.536V147.571L82.4596 147.571C82.4021 147.571 81.4253 147.563 80.289 147.553Z" fill="black" stroke="black" stroke-width="0.0110485"/>
<path d="M86.7745 147.606C85.8734 147.598 82.7472 147.572 82.6619 147.572L82.5684 147.572V147.536V147.5L82.7034 147.502C82.7777 147.503 83.7028 147.511 84.7592 147.52C87.3827 147.544 87.2916 147.543 87.2916 147.547C87.2916 147.549 87.2873 147.565 87.2819 147.581L87.2722 147.611L87.2138 147.61C87.1817 147.61 86.984 147.608 86.7745 147.606Z" fill="black" stroke="black" stroke-width="0.0220971"/>
<path d="M76.4908 147.52C75.7595 147.514 75.1606 147.508 75.1599 147.508C75.1593 147.508 75.1587 147.491 75.1587 147.471V147.434L75.1899 147.434C75.207 147.434 75.8506 147.44 76.62 147.447C77.3894 147.454 78.0527 147.46 78.094 147.46L78.169 147.46V147.496V147.533L77.9947 147.533C77.8989 147.532 77.2222 147.527 76.4908 147.52Z" fill="black" stroke="black" stroke-width="0.0220971"/>
</g>
<defs>
<filter id="filter0_di_425_454" x="0.699707" y="0.923218" width="229.747" height="225.768" filterUnits="userSpaceOnUse" color-interpolation-filters="sRGB">
<feFlood flood-opacity="0" result="BackgroundImageFix"/>
<feColorMatrix in="SourceAlpha" type="matrix" values="0 0 0 0 0 0 0 0 0 0 0 0 0 0 0 0 0 0 127 0" result="hardAlpha"/>
<feOffset dx="10" dy="10"/>
<feGaussianBlur stdDeviation="5"/>
<feComposite in2="hardAlpha" operator="out"/>
<feColorMatrix type="matrix" values="0 0 0 0 0 0 0 0 0 0 0 0 0 0 0 0 0 0 0.4 0"/>
<feBlend mode="normal" in2="BackgroundImageFix" result="effect1_dropShadow_425_454"/>
<feBlend mode="normal" in="SourceGraphic" in2="effect1_dropShadow_425_454" result="shape"/>
<feColorMatrix in="SourceAlpha" type="matrix" values="0 0 0 0 0 0 0 0 0 0 0 0 0 0 0 0 0 0 127 0" result="hardAlpha"/>
<feOffset dx="30" dy="30"/>
<feGaussianBlur stdDeviation="12.5"/>
<feComposite in2="hardAlpha" operator="arithmetic" k2="-1" k3="1"/>
<feColorMatrix type="matrix" values="0 0 0 0 0 0 0 0 0 0 0 0 0 0 0 0 0 0 0.25 0"/>
<feBlend mode="normal" in2="shape" result="effect2_innerShadow_425_454"/>
</filter>
</defs>
</svg>
