<svg width="24" height="24" viewBox="0 0 24 24" fill="none" xmlns="http://www.w3.org/2000/svg">
<g clip-path="url(#clip0_870_596)">
<path d="M12.0004 2.3999C17.3044 2.3999 21.6004 6.6959 21.6004 11.9999C21.6004 17.3039 17.3044 21.5999 12.0004 21.5999C6.69639 21.5999 2.40039 17.3039 2.40039 11.9999C2.40039 6.6959 6.69639 2.3999 12.0004 2.3999ZM13.2004 7.1999C13.2004 6.5399 12.6604 5.9999 12.0004 5.9999C11.3404 5.9999 10.8004 6.5399 10.8004 7.1999C10.8004 7.8599 11.3404 8.3999 12.0004 8.3999C12.6604 8.3999 13.2004 7.8599 13.2004 7.1999ZM13.2004 17.9999V10.7999H10.8004V17.9999H13.2004Z" fill="black"/>
</g>
<defs>
<clipPath id="clip0_870_596">
<rect width="24" height="24" fill="white"/>
</clipPath>
</defs>
</svg>
