<svg width="24" height="24" viewBox="0 0 24 24" fill="ffff" xmlns="http://www.w3.org/2000/svg">
<g clip-path="url(#clip0_1_54900)">
<path d="M16.8768 0.102174C17.0236 0.187282 17.1372 0.319659 17.1991 0.477681C17.2609 0.635702 17.2673 0.810026 17.2173 0.972174L14.5158 9.75017H19.5003C19.6468 9.75012 19.7901 9.79295 19.9125 9.8734C20.0349 9.95385 20.1311 10.0684 20.1892 10.2029C20.2472 10.3373 20.2646 10.4859 20.2393 10.6302C20.2139 10.7744 20.1468 10.9081 20.0463 11.0147L8.0463 23.7647C7.93019 23.8881 7.77568 23.9686 7.60796 23.9931C7.44024 24.0175 7.26919 23.9844 7.1227 23.8991C6.97622 23.8139 6.86292 23.6815 6.80129 23.5236C6.73965 23.3657 6.73331 23.1916 6.7833 23.0297L9.4848 14.2502H4.5003C4.35382 14.2502 4.21052 14.2074 4.08811 14.1269C3.96569 14.0465 3.86951 13.932 3.81145 13.7975C3.75338 13.663 3.73596 13.5145 3.76135 13.3702C3.78674 13.2259 3.85381 13.0923 3.9543 12.9857L15.9543 0.235674C16.0703 0.112373 16.2245 0.0319272 16.392 0.00741715C16.5595 -0.0170929 16.7304 0.0157741 16.8768 0.100674V0.102174Z" fill="white"/>
</g>
<defs>
<clipPath id="clip0_1_54900">
<rect width="24" height="24" fill="white"/>
</clipPath>
</defs>
</svg>
