<svg width="15" height="15" viewBox="0 0 15 15" fill="none" xmlns="http://www.w3.org/2000/svg">
<g clip-path="url(#clip0_331_287)">
<path d="M7.5 1.5C5.0175 1.5 3 3.5175 3 6C3 7.515 3.8775 8.7825 4.8975 9.6675C5.22 9.945 5.7825 10.3875 6.285 11.04C6.84 11.7675 7.3425 12.5475 7.5 13.0725C7.6575 12.5475 8.16 11.7675 8.715 11.04C9.2175 10.3875 9.78 9.945 10.1025 9.6675C11.1225 8.7825 12 7.515 12 6C12 3.5175 9.9825 1.5 7.5 1.5ZM7.5 3.42C8.925 3.42 10.08 4.575 10.08 6C10.08 7.425 8.925 8.58 7.5 8.58C6.075 8.58 4.92 7.425 4.92 6C4.92 4.575 6.075 3.42 7.5 3.42Z" fill="black"/>
</g>
<defs>
<clipPath id="clip0_331_287">
<rect width="15" height="15" fill="white"/>
</clipPath>
</defs>
</svg>
