<svg width="69" height="64" viewBox="0 0 69 64" fill="none" xmlns="http://www.w3.org/2000/svg">
<path d="M60.4883 8.42682L38.1445 54.6669L60.4883 8.42682Z" fill="white"/>
<path d="M41.1008 11.6749L39.2365 17.5454L41.1008 11.6749ZM34.6753 31.9087L34.2799 33.1538L32.7776 37.8846L24.4844 64" fill="white"/>
<path d="M25.2003 62.2496C25.2017 62.2234 27.3514 55.44 29.9773 47.1753L34.7517 32.1485L45.3612 32.0368C52.8915 31.9576 56.1853 31.8582 56.7101 31.6942C59.3672 30.8638 61.4654 28.4208 61.8191 25.7455C62.1114 23.5358 61.6044 21.7082 60.2328 20.0269C59.3192 18.907 58.3902 18.2513 57.0283 17.7654C56.1012 17.4345 55.3879 17.407 47.7266 17.407C40.9944 17.407 39.4446 17.3604 39.5116 17.1602C39.557 17.0244 39.9517 15.7762 40.3886 14.3862L41.183 11.8591L49.8211 11.9369C58.0446 12.011 58.5217 12.0345 59.762 12.4256C64.4977 13.9189 67.8637 18.6789 68.1145 24.2369C68.2233 26.6486 67.894 28.4036 66.8992 30.7137C65.6162 33.6932 63.3699 35.9561 60.5054 37.1544L59.2886 37.6634L49.6669 37.7198L40.0451 37.7761L32.6791 50.0366C26.2071 60.8093 25.1882 62.4731 25.2003 62.2496Z" fill="white"/>
<path d="M24.7079 63.48C24.7108 63.4702 24.8012 63.1847 24.9087 62.8455C25.0859 62.2863 25.1049 62.2325 25.1127 62.2689C25.1252 62.3275 25.1641 62.3625 25.2168 62.3625C25.2574 62.3625 25.2653 62.3566 25.338 62.27C25.4937 62.0849 25.9897 61.3002 26.9815 59.6698C27.1406 59.4083 27.3389 59.0823 27.4222 58.9454C27.5055 58.8085 27.5799 58.6941 27.5874 58.6912C27.595 58.6886 27.5856 58.7121 27.5664 58.744C26.9532 59.7679 24.7215 63.4775 24.7136 63.4859C24.706 63.4941 24.7042 63.4925 24.7079 63.48Z" fill="white"/>
<path d="M50.1233 37.9014C48.1717 37.89 45.9354 37.8799 45.1538 37.8789C44.3722 37.8778 43.7361 37.8732 43.7403 37.8684C43.7483 37.8592 45.9444 37.8439 53.5104 37.8005C56.0831 37.7857 58.2638 37.7761 58.3566 37.779L58.5252 37.7844L58.3126 37.8141C57.4213 37.9387 57.0907 37.9422 50.1233 37.9014Z" fill="white"/>
<path d="M58.1263 12.0129C57.8155 11.9856 57.3359 11.9598 56.7979 11.9416C56.6325 11.936 56.4299 11.9298 56.3268 11.9274C56.2904 11.9265 56.2558 11.9254 56.25 11.9249L56.2393 11.9242V11.8952V11.8663L56.2584 11.8663C56.3114 11.8662 56.8852 11.871 56.909 11.8717L56.9365 11.8727V11.8835C56.9365 11.892 56.9369 11.8946 56.9386 11.8953C56.9399 11.8958 56.9728 11.8962 57.0122 11.8962C57.1908 11.8962 57.4281 11.9055 57.6423 11.9208C57.8079 11.9327 57.9515 11.9467 58.1474 11.9701L58.1691 11.9727V11.9948C58.1691 12.0115 58.1688 12.0168 58.1674 12.0166C58.1665 12.0165 58.1481 12.0148 58.1263 12.0129Z" fill="white"/>
<path d="M52.9032 11.8716C52.6469 11.8686 52.548 11.8675 52.2764 11.8648C52.1355 11.8633 51.9765 11.8617 51.9231 11.8611C51.8697 11.8604 51.8102 11.86 51.7909 11.86H51.7559V11.8441V11.8281L51.8157 11.8288C51.8485 11.8292 52.1357 11.8316 52.4537 11.8342C52.7718 11.8368 53.0519 11.8392 53.0762 11.8395L53.1204 11.8402V11.8569V11.8736L53.0918 11.8735C53.076 11.8734 52.9912 11.8725 52.9032 11.8716Z" fill="white"/>
<path d="M7.85156 55.5731L30.1953 9.33301L7.85156 55.5731Z" fill="white"/>
<path d="M27.2393 52.3252L29.1035 46.4547L27.2393 52.3252ZM33.6647 32.0913L34.0601 30.8462L35.5624 26.1155L43.8557 0" fill="white"/>
<path d="M43.14 1.75025C43.1387 1.77642 40.989 8.55986 38.3631 16.8246L33.5886 31.8514L22.9791 31.963C15.4488 32.0422 12.155 32.1417 11.6303 32.3057C8.97316 33.136 6.87499 35.579 6.52121 38.2544C6.229 40.4641 6.73596 42.2916 8.10754 43.9729C9.0212 45.0929 9.95017 45.7485 11.312 46.2345C12.2392 46.5654 12.9524 46.5928 20.6138 46.5928C27.346 46.5928 28.8958 46.6394 28.8288 46.8397C28.7834 46.9754 28.3887 48.2237 27.9518 49.6136L27.1574 52.1407L18.5193 52.0629C10.2958 51.9888 9.81867 51.9654 8.57832 51.5743C3.84269 50.0809 0.476617 45.3209 0.225903 39.7629C0.117107 37.3512 0.446405 35.5963 1.44114 33.2862C2.72416 30.3066 4.97051 28.0438 7.83494 26.8455L9.05174 26.3365L18.6735 26.2801L28.2953 26.2237L35.6612 13.9632C42.1333 3.1906 43.1522 1.52675 43.14 1.75025Z" fill="white"/>
<path d="M43.6331 0.519945C43.6304 0.529744 43.5398 0.815304 43.4323 1.1545C43.2551 1.71363 43.2361 1.76746 43.2283 1.73108C43.2158 1.67241 43.1769 1.63745 43.1242 1.63745C43.0836 1.63745 43.0757 1.64337 43.003 1.72995C42.8473 1.91506 42.3513 2.69976 41.3595 4.33015C41.2004 4.59169 41.0021 4.91769 40.9188 5.05459C40.8355 5.19149 40.7611 5.30586 40.7536 5.30875C40.746 5.31138 40.7555 5.2879 40.7745 5.256C41.3878 4.23202 43.6195 0.522498 43.6274 0.514014C43.6349 0.505859 43.6365 0.507449 43.6331 0.519945Z" fill="white"/>
<path d="M18.2173 26.0989C20.1689 26.1103 22.4052 26.1205 23.1868 26.1215C23.9684 26.1228 24.6045 26.1274 24.6004 26.132C24.5924 26.1412 22.3963 26.1564 14.8302 26.1999C12.2575 26.2146 10.0768 26.2243 9.98405 26.2214L9.81543 26.2161L10.028 26.1864C10.9193 26.0618 11.2499 26.0582 18.2173 26.0989Z" fill="white"/>
<path d="M10.2145 51.9874C10.5253 52.0147 11.0049 52.0405 11.5429 52.0588C11.7083 52.064 11.9109 52.0705 12.014 52.0729C12.0504 52.0736 12.085 52.0749 12.0908 52.0756L12.1016 52.0762V52.1052V52.1341L12.0825 52.1341C12.0295 52.1342 11.4556 52.1295 11.4318 52.1288L11.4043 52.1282V52.1174C11.4043 52.1089 11.4039 52.1064 11.4023 52.1056C11.401 52.1051 11.3681 52.105 11.3288 52.105C11.1502 52.1049 10.9129 52.0957 10.6987 52.0803C10.5331 52.0684 10.3895 52.0545 10.1936 52.031L10.1719 52.0284V52.0063C10.1719 51.9895 10.1722 51.9842 10.1739 51.9844C10.1739 51.9844 10.1933 51.9864 10.215 51.9883L10.2145 51.9874Z" fill="white"/>
<path d="M15.436 52.1285C15.6923 52.1318 15.7912 52.1325 16.0628 52.1353C16.2037 52.1366 16.3627 52.1386 16.4161 52.1393C16.4696 52.1399 16.529 52.1406 16.5483 52.1406H16.5833V52.1566V52.1725L16.5235 52.1719C16.4906 52.1715 16.2035 52.1692 15.8854 52.1666C15.5674 52.1639 15.2873 52.1613 15.263 52.1613L15.2188 52.1607V52.1439V52.1272L15.2474 52.1273C15.2632 52.1274 15.348 52.1286 15.4359 52.1293L15.436 52.1285Z" fill="white"/>
<path d="M39.338 17.4369C39.3422 17.4261 39.3588 17.371 39.375 17.3145L39.4043 17.2117L39.4584 17.2622C39.5682 17.365 39.8477 17.4027 40.8181 17.446C40.8735 17.4485 40.5614 17.4519 40.1246 17.4535C39.4953 17.4558 39.332 17.4524 39.338 17.4369Z" fill="white"/>
<path d="M28.9226 46.8284C28.9218 46.7726 28.8846 46.7246 28.8184 46.6934C28.6445 46.6116 28.0624 46.5671 26.7948 46.5387C26.7113 46.5368 27.1251 46.5353 27.8393 46.535L29.0222 46.5344L29.0039 46.5922C28.933 46.8167 28.9229 46.846 28.9226 46.8284Z" fill="white"/>
<path d="M30.5693 31.9999V31.9721L30.719 31.972C30.8014 31.972 31.0622 31.9696 31.2986 31.9668C32.3647 31.9541 33.6464 31.9425 33.6496 31.9455C33.6516 31.9474 33.6475 31.9666 33.6406 31.9883L33.6281 32.0277H32.0987H30.5693L30.5693 31.9999Z" fill="white"/>
<path d="M34.6856 32.057C34.6872 32.0546 34.6942 32.0345 34.7012 32.0123L34.7139 31.972H37.0556H39.3972V31.9906V32.0092L39.0222 32.0129C38.6136 32.017 37.5254 32.0285 36.3231 32.0414C35.9024 32.0459 35.3889 32.051 35.1818 32.0526C34.9747 32.0543 34.7777 32.0569 34.7441 32.0585C34.7104 32.0601 34.6841 32.0594 34.6856 32.057Z" fill="white"/>
<path d="M57.5315 11.9794C57.213 11.9596 56.4722 11.9349 55.701 11.9185C54.9306 11.9021 53.5163 11.8825 52.1607 11.8695C52.0464 11.8684 51.9658 11.8666 51.9658 11.8651C51.9658 11.8636 52.0155 11.8632 52.0896 11.8642C52.3409 11.8677 52.9502 11.874 53.0362 11.874H53.1249V11.8573V11.8406L53.1419 11.8407C53.1513 11.8407 53.826 11.8463 54.6412 11.8531C55.4564 11.86 56.1491 11.8656 56.1805 11.8656L56.2375 11.8657V11.8962C56.2375 11.9235 56.2381 11.9268 56.2427 11.9268C56.3012 11.927 56.9222 11.9475 57.1269 11.956C57.3375 11.9648 57.5723 11.9766 57.5923 11.9794L57.6086 11.9817L57.5878 11.9817C57.5764 11.9816 57.5511 11.9806 57.5315 11.9794Z" fill="white"/>
<path d="M50.3591 11.8532C49.9988 11.8497 49.847 11.8483 48.9332 11.8401C48.4212 11.8356 47.9709 11.8314 47.9323 11.8309L47.8623 11.83V11.8129V11.7959L47.9153 11.7965C47.9444 11.7968 48.5309 11.8018 49.2185 11.8074C49.9062 11.8131 50.517 11.8182 50.5759 11.8187L50.6829 11.8196V11.8375V11.8553L50.6107 11.8551C50.5709 11.8551 50.4577 11.8541 50.3591 11.8532Z" fill="white"/>
<path d="M44.9936 11.8033C41.1358 11.7676 41.1353 11.7676 41.1333 11.7658C41.1323 11.7648 41.1329 11.7592 41.1345 11.7532C41.1374 11.7429 41.1426 11.7424 41.2306 11.7436C41.2818 11.7442 42.7831 11.7563 44.5668 11.7704C46.3504 11.7844 47.8212 11.7971 47.835 11.7986C47.857 11.801 47.8602 11.8031 47.8602 11.8149V11.8285L47.7076 11.8277C47.6236 11.8273 46.4023 11.8163 44.9936 11.8033Z" fill="white"/>
<path d="M51.7325 11.8656C51.633 11.8645 51.3916 11.8622 51.1959 11.8605C51.0003 11.8588 50.8052 11.8566 50.7624 11.8557L50.6846 11.854V11.8377V11.8213L50.7757 11.8214C50.8418 11.8214 51.7483 11.829 51.754 11.8296C51.7543 11.8296 51.7547 11.8371 51.7547 11.8463V11.863H51.8583C51.9241 11.863 51.9625 11.864 51.9637 11.8658C51.9649 11.8675 51.9562 11.8684 51.9394 11.8681C51.9251 11.8678 51.8319 11.8667 51.7325 11.8656Z" fill="white"/>
<path d="M62.9462 13.9445C62.866 13.8857 62.7493 13.8032 62.659 13.7414C62.0756 13.3427 61.4727 13.0087 60.8343 12.7306C60.5186 12.593 60.1775 12.4644 59.8444 12.3574L59.7842 12.3381L59.8236 12.3375L59.863 12.337L59.9383 12.3608C60.5905 12.5663 61.2262 12.8395 61.8431 13.1794C62.2482 13.4026 62.6664 13.6704 63.0433 13.948L63.0733 13.9701H63.0272H62.9811L62.9462 13.9445Z" fill="white"/>
<path d="M59.7024 12.3133C59.159 12.1438 58.7586 12.0703 58.0747 12.0146C57.9663 12.0058 57.7275 11.9896 57.6351 11.9849C57.6153 11.9839 57.6094 11.9829 57.6094 11.9809C57.6094 11.9787 57.6122 11.9784 57.6225 11.9792C57.6297 11.9798 57.6667 11.9821 57.7048 11.9843C57.8415 11.9921 58.0101 12.004 58.1204 12.0138C58.1462 12.016 58.1679 12.0173 58.1687 12.0165C58.1695 12.0158 58.1706 12.0057 58.1711 11.9941L58.1722 11.9731L58.2141 11.9786C58.6881 12.0405 59.1629 12.1377 59.6259 12.2677C59.6899 12.2857 59.7897 12.3149 59.8323 12.3282L59.8533 12.3347L59.8229 12.3348C59.8062 12.3349 59.7892 12.3354 59.7852 12.3359C59.7797 12.3365 59.7584 12.3307 59.7024 12.3133Z" fill="white"/>
<path d="M39.8428 17.465C39.8428 17.4635 39.8795 17.4631 40.0662 17.4623C40.3603 17.4611 40.6285 17.4592 40.735 17.4574C40.8088 17.4562 40.8215 17.4557 40.8257 17.4539C40.8317 17.4512 40.8324 17.4495 40.8296 17.4443L40.8273 17.4402L40.8383 17.4402C40.8444 17.4402 40.8647 17.4408 40.8835 17.4415C41.0711 17.4486 41.459 17.4585 41.7708 17.4642C41.8141 17.465 41.856 17.4658 41.8638 17.4659C41.8716 17.4661 41.4201 17.4664 40.8604 17.4665C40.0043 17.4668 39.8428 17.4665 39.8428 17.465Z" fill="white"/>
<path d="M39.3174 17.4659C39.3174 17.4654 39.3196 17.4583 39.3222 17.4502C39.3257 17.4397 39.3273 17.4363 39.328 17.4383C39.3305 17.4452 39.3317 17.4467 39.3366 17.4488C39.3473 17.4536 39.3763 17.4565 39.4367 17.4589C39.4828 17.4607 39.6528 17.4629 39.7565 17.4629C39.832 17.4629 39.8426 17.4631 39.8426 17.4649C39.8426 17.4667 39.8124 17.4669 39.58 17.4669C39.4355 17.4669 39.3174 17.4665 39.3174 17.4659Z" fill="white"/>
<path d="M13.426 52.1454C12.7567 52.1396 12.1853 52.1349 12.1562 52.1349L12.1033 52.1348V52.105V52.0751L12.0972 52.0744C12.0939 52.0741 12.0639 52.073 12.0305 52.0721L11.9697 52.0703V52.0672C11.9697 52.0643 11.9702 52.0642 11.9772 52.0648C11.9813 52.0651 11.999 52.0658 12.0166 52.0662C12.0342 52.0666 12.0828 52.0678 12.1246 52.0689C12.6988 52.0838 13.4711 52.0977 14.346 52.1088C14.4913 52.1106 14.6245 52.1125 14.6419 52.113L14.6735 52.1138V52.135V52.1561L14.6582 52.156C14.6498 52.1559 14.0953 52.1511 13.426 52.1454Z" fill="white"/>
<path d="M17.4013 52.1778C17.0309 52.1744 16.6955 52.1716 16.6561 52.1715L16.5843 52.1712V52.1553V52.1393L16.5652 52.1393C16.5546 52.1393 16.4456 52.1381 16.3229 52.1366C15.9943 52.1327 15.6314 52.1289 15.4115 52.1269L15.2175 52.1252V52.1423V52.1594L15.1529 52.1586C15.1173 52.1582 14.9952 52.1572 14.8815 52.1562L14.6748 52.1546V52.1339V52.1132L14.7238 52.1142C14.7508 52.1148 14.886 52.1165 15.0243 52.1179C15.1626 52.1194 15.3819 52.1218 15.5116 52.1233C15.6414 52.1248 15.9885 52.1284 16.2831 52.1313C16.5777 52.1342 16.9332 52.1377 17.0731 52.1391C17.213 52.1406 17.4924 52.143 17.694 52.1446C17.8956 52.1461 18.0711 52.1481 18.084 52.1489L18.1074 52.1504V52.1675V52.1846L18.0911 52.1843C18.0821 52.1841 17.7717 52.1811 17.4013 52.1778Z" fill="white"/>
<path d="M19.9307 52.1995C18.9372 52.1913 18.1214 52.1842 18.1179 52.1837L18.1113 52.1828V52.166V52.1491L18.1661 52.1491C18.1962 52.1491 18.3063 52.1499 18.4107 52.151C18.5151 52.1521 19.3063 52.1592 20.1688 52.1669C21.0314 52.1746 21.7807 52.1815 21.834 52.1822L21.931 52.1835V52.1992V52.215L21.834 52.2148C21.7807 52.2146 20.9242 52.2078 19.9307 52.1995Z" fill="white"/>
<path d="M24.1659 52.235C23.6714 52.2309 23.2617 52.2273 23.2554 52.2271L23.2441 52.2266V52.2106V52.1947L23.2675 52.1947C23.3004 52.1947 25.0663 52.2105 25.1155 52.2113L25.156 52.2119V52.2273V52.2427L25.1105 52.2426C25.0855 52.2426 24.6604 52.2391 24.1659 52.235Z" fill="white"/>
<path d="M26.9877 52.258C26.5955 52.2545 25.2351 52.2432 25.1979 52.2432L25.1572 52.2432V52.2276V52.212L25.216 52.2126C25.2483 52.2129 25.6509 52.2165 26.1106 52.2206C27.2524 52.2308 27.2127 52.2304 27.2127 52.2324C27.2127 52.2333 27.2108 52.24 27.2085 52.2471L27.2043 52.2601L27.1789 52.2598C27.1649 52.2596 27.0789 52.2589 26.9877 52.258Z" fill="white"/>
<path d="M22.5123 52.2206C22.1941 52.2177 21.9334 52.2153 21.9332 52.2152C21.9329 52.2151 21.9326 52.2078 21.9326 52.199V52.183L21.9462 52.183C21.9536 52.183 22.2337 52.1856 22.5686 52.1886C22.9034 52.1917 23.1921 52.1943 23.21 52.1943L23.2427 52.1943V52.2103V52.2263L23.1668 52.2261C23.1251 52.2259 22.8306 52.2234 22.5123 52.2206Z" fill="white"/>
</svg>
