<svg width="24" height="24" viewBox="0 0 24 24" fill="none" xmlns="http://www.w3.org/2000/svg">
<g clip-path="url(#clip0_331_275)">
<path d="M24 0H0V24H24V0Z" fill="white" fill-opacity="0.01"/>
<path d="M24 0H0V24H24V0Z" fill="white" fill-opacity="0.01"/>
<path d="M11.8919 5.18597C9.33695 2.90619 6.3224 2.07349 4.12905 3.33981C1.02014 5.13472 0.738455 10.4671 3.49988 15.2501C5.3154 18.3946 7.99425 20.5188 10.5 21.095" fill="#FE0404"/>
<path d="M11.8919 5.18597C9.33695 2.90619 6.3224 2.07349 4.12905 3.33981C1.02014 5.13472 0.738455 10.4671 3.49988 15.2501C5.3154 18.3946 7.99425 20.5188 10.5 21.095" stroke="white" stroke-width="2" stroke-linecap="round" stroke-linejoin="round"/>
<path d="M9.12903 8.75007C6.36763 13.533 6.64928 18.8654 9.75818 20.6603C12.8671 22.4552 17.6259 20.033 20.3874 15.2501C23.1488 10.4671 22.8671 5.13472 19.7582 3.33981C16.6493 1.54489 11.8904 3.96714 9.12903 8.75007Z" fill="#FE0404" stroke="white" stroke-width="2" stroke-linecap="round" stroke-linejoin="round"/>
</g>
<defs>
<clipPath id="clip0_331_275">
<rect width="24" height="24" fill="white"/>
</clipPath>
</defs>
</svg>
