<svg width="24" height="24" viewBox="0 0 24 24" fill="none" xmlns="http://www.w3.org/2000/svg">
<g clip-path="url(#clip0_35_37)">
<path d="M13.3741 19.0905C13.3741 19.0845 13.3741 19.08 13.3726 19.074C13.3726 19.08 13.3726 19.0845 13.3741 19.0905Z" fill="black"/>
<path d="M22.5 0H1.5C0.675 0 0 0.675 0 1.5V22.5C0 23.325 0.675 24 1.5 24H13.074C13.0755 24 13.0755 24 13.077 24C13.0785 24 13.0785 24 13.08 24H22.5C23.325 24 24 23.325 24 22.5V1.5C24 0.675 23.325 0 22.5 0ZM4.5 5.25C4.5 4.836 4.836 4.5 5.25 4.5C5.664 4.5 6 4.836 6 5.25V6.75C6 7.164 5.664 7.5 5.25 7.5C4.836 7.5 4.5 7.164 4.5 6.75V5.25ZM22.5 22.5H13.71C13.5525 21.513 13.455 20.496 13.3965 19.509C13.3965 19.512 13.3965 19.515 13.3965 19.5165C12.9345 19.5675 12.4695 19.593 12 19.593C8.868 19.593 5.85 18.453 3.504 16.3815C3.1545 16.0725 3.1215 15.54 3.429 15.1905C3.7365 14.841 4.2705 14.808 4.62 15.1155C6.657 16.914 9.2775 17.904 11.9985 17.904C12.4455 17.904 12.891 17.877 13.3305 17.8245C13.2795 15.054 13.491 12.858 13.4955 12.8235C13.5165 12.612 13.4475 12.4035 13.305 12.246C13.1625 12.0885 12.9615 12 12.7485 12H10.518C10.551 11.1885 10.6365 9.801 10.869 8.2455C11.3115 5.274 12.087 2.9535 13.122 1.5H22.4985V22.5H22.5Z" fill="black"/>
<path d="M18.75 7.5C18.336 7.5 18 7.164 18 6.75V5.25C18 4.836 18.336 4.5 18.75 4.5C19.164 4.5 19.5 4.836 19.5 5.25V6.75C19.5 7.164 19.164 7.5 18.75 7.5Z" fill="black"/>
<path d="M12.6675 19.575C12.582 19.5795 12.4965 19.5825 12.411 19.5855C12.4965 19.5825 12.582 19.5795 12.6675 19.575Z" fill="black"/>
<path d="M12 19.5945C12.1095 19.5945 12.219 19.593 12.33 19.59C12.2205 19.593 12.111 19.5945 12 19.5945Z" fill="black"/>
<path d="M12.6345 17.8875C12.6525 17.886 12.6705 17.886 12.69 17.8845C12.672 17.886 12.654 17.886 12.6345 17.8875Z" fill="black"/>
<path d="M12.306 17.901C12.3315 17.901 12.357 17.8995 12.381 17.898C12.3555 17.8995 12.33 17.8995 12.306 17.901Z" fill="black"/>
<path d="M20.5694 15.192C20.2604 14.8425 19.7279 14.8095 19.3784 15.117C17.6759 16.62 15.5654 17.5575 13.3304 17.826C13.3409 18.372 13.3604 18.939 13.3949 19.5165C16.0184 19.23 18.4994 18.1425 20.4944 16.3815C20.8439 16.0725 20.8769 15.54 20.5694 15.1905V15.192Z" fill="black"/>
<path d="M13.395 19.518C13.287 19.53 13.179 19.5405 13.071 19.5495C13.179 19.5405 13.287 19.53 13.395 19.518Z" fill="black"/>
<path d="M13.02 19.5525C12.9285 19.56 12.837 19.566 12.7455 19.572C12.837 19.566 12.9285 19.56 13.02 19.5525Z" fill="black"/>
</g>
<defs>
<clipPath id="clip0_35_37">
<rect width="24" height="24" fill="white"/>
</clipPath>
</defs>
</svg>
