<svg width="45" height="45" viewBox="0 0 45 45" fill="none" xmlns="http://www.w3.org/2000/svg">
<g clip-path="url(#clip0_771_631)">
<path d="M19.3474 27.9394C18.7624 27.9394 18.1774 27.7172 17.7302 27.27C13.5509 23.0906 13.5509 16.2872 17.7302 12.105L26.1677 3.6675C28.1927 1.6425 30.8871 0.52594 33.7502 0.52594C36.6134 0.52594 39.3077 1.6425 41.3327 3.6675C45.5121 7.84969 45.5121 14.6503 41.3327 18.8325L37.4768 22.6884C36.5852 23.58 35.1368 23.58 34.2452 22.6884C33.3537 21.7969 33.3537 20.3484 34.2452 19.4569L38.1012 15.6009C40.5002 13.2019 40.5002 9.29813 38.1012 6.89907C36.9396 5.7375 35.3927 5.09625 33.7502 5.09625C32.1077 5.09625 30.5609 5.7375 29.3993 6.89907L20.9618 15.3366C18.5627 17.7356 18.5627 21.6394 20.9618 24.0384C21.8534 24.93 21.8534 26.3784 20.9618 27.27C20.5146 27.7172 19.9296 27.9394 19.3446 27.9394H19.3474Z" fill="white"/>
<path d="M11.2502 44.4741C8.38711 44.4741 5.69273 43.3575 3.66773 41.3325C-0.511641 37.1531 -0.511641 30.3497 3.66773 26.1675L7.52367 22.3116C8.41523 21.42 9.86367 21.42 10.7552 22.3116C11.6468 23.2031 11.6468 24.6516 10.7552 25.5431L6.8993 29.3991C4.50023 31.7981 4.50023 35.7019 6.8993 38.101C8.06086 39.2625 9.60492 39.9038 11.2502 39.9038C12.8955 39.9038 14.4396 39.2625 15.6012 38.101L24.0387 29.6635C26.4377 27.2644 26.4377 23.3606 24.0387 20.9616C23.1471 20.07 23.1471 18.6216 24.0387 17.73C24.9302 16.8384 26.3787 16.8384 27.2702 17.73C31.4496 21.9094 31.4496 28.7128 27.2702 32.895L18.8327 41.3325C16.8077 43.3575 14.1134 44.4741 11.2502 44.4741Z" fill="white"/>
</g>
<defs>
<clipPath id="clip0_771_631">
<rect width="45" height="45" fill="white"/>
</clipPath>
</defs>
</svg>
