<svg width="46" height="46" viewBox="0 0 46 46" fill="none" xmlns="http://www.w3.org/2000/svg">
<path d="M43.125 40.25C43.125 40.25 46 40.25 46 37.375C46 34.5 43.125 25.875 31.625 25.875C20.125 25.875 17.25 34.5 17.25 37.375C17.25 40.25 20.125 40.25 20.125 40.25H43.125ZM20.1882 37.375C20.167 37.3721 20.1459 37.3682 20.125 37.3635C20.1279 36.6045 20.6051 34.4023 22.31 32.4185C23.897 30.5584 26.6857 28.75 31.625 28.75C36.5614 28.75 39.3501 30.5613 40.94 32.4185C42.6449 34.4023 43.1193 36.6074 43.125 37.3635L43.102 37.3693C43.0886 37.3715 43.0752 37.3734 43.0617 37.375H20.1882ZM31.625 20.125C33.15 20.125 34.6125 19.5192 35.6909 18.4409C36.7692 17.3625 37.375 15.9 37.375 14.375C37.375 12.85 36.7692 11.3875 35.6909 10.3091C34.6125 9.2308 33.15 8.625 31.625 8.625C30.1 8.625 28.6375 9.2308 27.5591 10.3091C26.4808 11.3875 25.875 12.85 25.875 14.375C25.875 15.9 26.4808 17.3625 27.5591 18.4409C28.6375 19.5192 30.1 20.125 31.625 20.125ZM40.25 14.375C40.25 15.5077 40.0269 16.6292 39.5935 17.6756C39.16 18.7221 38.5247 19.6729 37.7238 20.4738C36.9229 21.2747 35.9721 21.91 34.9256 22.3435C33.8792 22.7769 32.7577 23 31.625 23C30.4923 23 29.3708 22.7769 28.3244 22.3435C27.2779 21.91 26.3271 21.2747 25.5262 20.4738C24.7253 19.6729 24.09 18.7221 23.6565 17.6756C23.2231 16.6292 23 15.5077 23 14.375C23 12.0875 23.9087 9.89371 25.5262 8.2762C27.1437 6.6587 29.3375 5.75 31.625 5.75C33.9125 5.75 36.1063 6.6587 37.7238 8.2762C39.3413 9.89371 40.25 12.0875 40.25 14.375ZM19.941 26.68C18.7909 26.3179 17.6055 26.0798 16.4047 25.9699C15.7301 25.9057 15.0527 25.8741 14.375 25.875C2.875 25.875 0 34.5 0 37.375C0 39.2926 0.957375 40.25 2.875 40.25H14.996C14.5698 39.3525 14.3572 38.3684 14.375 37.375C14.375 34.4713 15.4589 31.5042 17.5088 29.026C18.2074 28.1807 19.021 27.3901 19.941 26.68ZM14.145 28.75C12.4434 31.3067 11.5243 34.304 11.5 37.375H2.875C2.875 36.6275 3.3465 34.4137 5.06 32.4185C6.62687 30.59 9.3495 28.8075 14.145 28.7529V28.75ZM4.3125 15.8125C4.3125 13.525 5.2212 11.3312 6.8387 9.7137C8.45621 8.0962 10.65 7.1875 12.9375 7.1875C15.225 7.1875 17.4188 8.0962 19.0363 9.7137C20.6538 11.3312 21.5625 13.525 21.5625 15.8125C21.5625 18.1 20.6538 20.2938 19.0363 21.9113C17.4188 23.5288 15.225 24.4375 12.9375 24.4375C10.65 24.4375 8.45621 23.5288 6.8387 21.9113C5.2212 20.2938 4.3125 18.1 4.3125 15.8125ZM12.9375 10.0625C11.4125 10.0625 9.94997 10.6683 8.87164 11.7466C7.7933 12.825 7.1875 14.2875 7.1875 15.8125C7.1875 17.3375 7.7933 18.8 8.87164 19.8784C9.94997 20.9567 11.4125 21.5625 12.9375 21.5625C14.4625 21.5625 15.925 20.9567 17.0034 19.8784C18.0817 18.8 18.6875 17.3375 18.6875 15.8125C18.6875 14.2875 18.0817 12.825 17.0034 11.7466C15.925 10.6683 14.4625 10.0625 12.9375 10.0625Z" fill="white"/>
</svg>
