<svg width="45" height="45" viewBox="0 0 45 45" fill="none" xmlns="http://www.w3.org/2000/svg">
<path d="M41.8758 38.6807C43.2851 36.7915 44.2522 34.61 44.7058 32.2971C45.1593 29.9842 45.0878 27.599 44.4964 25.3174C43.905 23.0359 42.8088 20.9162 41.2888 19.115C39.7688 17.3137 37.8638 15.8767 35.7142 14.9101C35.246 12.2162 34.17 9.66447 32.5678 7.44878C30.9657 5.23308 28.8796 3.41174 26.4681 2.12314C24.0566 0.834543 21.3832 0.112592 18.6509 0.0121449C15.9185 -0.0883022 13.1993 0.435397 10.6997 1.54345C8.2001 2.65151 5.98594 4.31476 4.22545 6.40684C2.46497 8.49891 1.20448 10.9648 0.539757 13.617C-0.124965 16.2693 -0.176428 19.0382 0.389277 21.7133C0.954983 24.3885 2.12297 26.8995 3.8045 29.0555L0.678743 32.159C0.366712 32.4752 0.155339 32.8768 0.0712936 33.313C-0.0127513 33.7493 0.0342985 34.2007 0.206506 34.6102C0.375208 35.0209 0.661693 35.3725 1.02986 35.6206C1.39802 35.8687 1.83139 36.0023 2.27535 36.0045H15.0707C16.345 38.691 18.354 40.9617 20.8652 42.5537C23.3764 44.1456 26.2871 44.9938 29.2603 45H42.7528C43.1968 44.9978 43.6301 44.8642 43.9983 44.6161C44.3665 44.3679 44.6529 44.0164 44.8216 43.6057C44.9939 43.1962 45.0409 42.7448 44.9569 42.3085C44.8728 41.8723 44.6614 41.4707 44.3494 41.1544L41.8758 38.6807ZM13.5191 29.2579C13.5222 30.011 13.5823 30.7628 13.699 31.5068H7.69483L8.4819 30.7422C8.69267 30.5331 8.85996 30.2844 8.97413 30.0103C9.08829 29.7363 9.14707 29.4424 9.14707 29.1455C9.14707 28.8486 9.08829 28.5547 8.97413 28.2806C8.85996 28.0066 8.69267 27.7578 8.4819 27.5488C7.22161 26.3022 6.22247 24.817 5.5429 23.1797C4.86334 21.5425 4.51699 19.7862 4.5241 18.0136C4.5241 14.435 5.94563 11.0029 8.47596 8.47244C11.0063 5.94197 14.4382 4.52037 18.0166 4.52037C20.8088 4.50359 23.5361 5.36231 25.8151 6.97583C28.094 8.58934 29.8101 10.8765 30.722 13.5158C30.2273 13.5158 29.755 13.5158 29.2603 13.5158C25.0855 13.5158 21.0816 15.1744 18.1296 18.1266C15.1775 21.0788 13.5191 25.0829 13.5191 29.2579ZM37.2209 40.5023L37.3333 40.6147H29.2603C26.6593 40.6101 24.1403 39.7037 22.1325 38.0501C20.1247 36.3965 18.7523 34.0978 18.2491 31.5458C17.7459 28.9938 18.143 26.3462 19.3727 24.0541C20.6025 21.762 22.5889 19.9672 24.9934 18.9754C27.398 17.9837 30.072 17.8563 32.56 18.615C35.0479 19.3737 37.1959 20.9716 38.6379 23.1364C40.08 25.3012 40.7269 27.8991 40.4685 30.4874C40.2101 33.0757 39.0624 35.4944 37.2209 37.3314C36.7972 37.7466 36.5547 38.3124 36.5463 38.9056C36.5475 39.2031 36.6078 39.4974 36.7236 39.7715C36.8394 40.0456 37.0084 40.294 37.2209 40.5023Z" fill="white"/>
</svg>
