<svg width="32" height="32" viewBox="0 0 32 32" fill="none" xmlns="http://www.w3.org/2000/svg">
<g clip-path="url(#clip0_913_671)">
<path d="M15.9996 28.8002C17.7596 28.8002 19.1996 27.3602 19.1996 25.6002H12.7996C12.7996 27.3602 14.2396 28.8002 15.9996 28.8002ZM22.3996 15.6802V12.0002C22.3996 9.12019 20.4796 6.56019 17.5996 5.7602C17.7596 5.4402 17.7596 5.1202 17.9196 4.9602C17.7596 4.0002 16.9596 3.2002 15.9996 3.2002C15.0396 3.2002 14.2396 4.0002 14.2396 4.9602C14.2396 5.28019 14.3996 5.60019 14.5596 5.7602C11.6796 6.40019 9.75957 8.9602 9.75957 12.0002V15.5202C9.59957 17.4402 8.31957 19.2002 6.55957 20.0002V24.0002H25.7596V20.0002C23.8396 19.3602 22.5596 17.6002 22.3996 15.6802Z" fill="black"/>
</g>
<defs>
<clipPath id="clip0_913_671">
<rect width="32" height="32" fill="white"/>
</clipPath>
</defs>
</svg>
