<svg width="32" height="32" viewBox="0 0 32 32" fill="none" xmlns="http://www.w3.org/2000/svg">
<g clip-path="url(#clip0_913_661)">
<path d="M24.7203 10.0002C27.6483 11.5042 27.8883 15.0882 25.8403 17.9682C24.5603 19.7602 22.1123 20.9762 20.3043 20.8162L16.0803 28.8002H14.4003L10.1603 20.8162C8.35232 21.0722 5.79232 19.8082 4.48032 17.9522C2.43232 15.0722 2.67232 11.4882 5.61632 10.0002C6.38432 9.61619 7.15232 9.4722 7.90432 9.5042C7.88832 10.1442 7.92032 10.7842 8.01632 11.4402C8.43232 14.1442 10.2723 17.0882 12.5923 18.4322C12.2883 19.3122 11.8083 20.0162 11.1843 20.4322L14.4003 26.5282V17.4722C12.2243 16.8802 10.0163 14.0162 9.60032 11.2002C8.96032 6.96019 11.2003 3.2002 15.2003 3.2002C19.2003 3.2002 21.4403 6.96019 20.8003 11.2002C20.3843 14.0162 18.1763 16.8802 16.0003 17.4722V26.7042L19.3123 20.5602C18.6083 20.1922 18.0803 19.4242 17.7283 18.4802C20.0963 17.1522 21.9683 14.1762 22.3843 11.4402C22.4803 10.7842 22.5123 10.1282 22.4963 9.48819C23.2323 9.47219 23.9683 9.61619 24.7203 10.0002Z" fill="black"/>
</g>
<defs>
<clipPath id="clip0_913_661">
<rect width="32" height="32" fill="white"/>
</clipPath>
</defs>
</svg>
