<svg width="15" height="15" viewBox="0 0 15 15" fill="none" xmlns="http://www.w3.org/2000/svg">
<path d="M7.5 1.25C4.7375 1.25 2.5 1.5625 2.5 3.75V10C2.50141 10.2621 2.55776 10.521 2.66541 10.76C2.77306 10.999 2.92963 11.2128 3.125 11.3875V12.5C3.125 12.6658 3.19085 12.8247 3.30806 12.9419C3.42527 13.0592 3.58424 13.125 3.75 13.125H4.375C4.54076 13.125 4.69973 13.0592 4.81694 12.9419C4.93415 12.8247 5 12.6658 5 12.5V11.875H8.75C8.37634 11.2035 8.16247 10.455 8.125 9.6875C8.13057 9.13403 8.2685 8.58993 8.52727 8.10065C8.78605 7.61137 9.15815 7.19111 9.6125 6.875H3.75V3.75H11.25V6.25C11.3541 6.2436 11.4584 6.2436 11.5625 6.25C11.8799 6.25101 12.1956 6.29731 12.5 6.3875V3.75C12.5 1.5625 10.2625 1.25 7.5 1.25ZM4.6875 8.75C4.87292 8.75 5.05418 8.80498 5.20835 8.908C5.36252 9.01101 5.48268 9.15743 5.55364 9.32873C5.62459 9.50004 5.64316 9.68854 5.60699 9.8704C5.57081 10.0523 5.48152 10.2193 5.35041 10.3504C5.2193 10.4815 5.05225 10.5708 4.8704 10.607C4.68854 10.6432 4.50004 10.6246 4.32873 10.5536C4.15743 10.4827 4.01101 10.3625 3.908 10.2083C3.80498 10.0542 3.75 9.87292 3.75 9.6875C3.75 9.43886 3.84877 9.2004 4.02459 9.02459C4.2004 8.84877 4.43886 8.75 4.6875 8.75ZM11.5625 7.5C10.9844 7.5065 10.4317 7.73905 10.0229 8.14789C9.61405 8.55672 9.3815 9.10935 9.375 9.6875C9.375 11.3125 11.5625 13.75 11.5625 13.75C11.5625 13.75 13.75 11.3125 13.75 9.6875C13.7435 9.10935 13.5109 8.55672 13.1021 8.14789C12.6933 7.73905 12.1406 7.5065 11.5625 7.5ZM11.5625 10.5C11.3636 10.5 11.1728 10.421 11.0322 10.2803C10.8915 10.1397 10.8125 9.94891 10.8125 9.75C10.8125 9.55109 10.8915 9.36032 11.0322 9.21967C11.1728 9.07902 11.3636 9 11.5625 9C11.7571 9.01316 11.9403 9.0964 12.0782 9.23431C12.2161 9.37221 12.2993 9.55542 12.3125 9.75C12.3169 9.84967 12.3006 9.94918 12.2645 10.0422C12.2283 10.1352 12.1732 10.2196 12.1027 10.2902C12.0321 10.3607 11.9477 10.4158 11.8547 10.452C11.7617 10.4881 11.6622 10.5044 11.5625 10.5Z" fill="black"/>
</svg>
