<svg width="20" height="20" viewBox="0 0 20 20" fill="none" xmlns="http://www.w3.org/2000/svg">
<g clip-path="url(#clip0_1153_755)">
<path d="M9.99935 1.6665C8.35118 1.6665 6.74001 2.15525 5.3696 3.07092C3.99919 3.9866 2.93109 5.28809 2.30036 6.81081C1.66963 8.33353 1.5046 10.0091 1.82614 11.6256C2.14769 13.2421 2.94136 14.727 4.1068 15.8924C5.27223 17.0578 6.75709 17.8515 8.3736 18.173C9.99011 18.4946 11.6657 18.3296 13.1884 17.6988C14.7111 17.0681 16.0126 16 16.9283 14.6296C17.8439 13.2592 18.3327 11.648 18.3327 9.99984C18.3327 8.90549 18.1171 7.82186 17.6983 6.81081C17.2796 5.79976 16.6657 4.8811 15.8919 4.10728C15.1181 3.33346 14.1994 2.71963 13.1884 2.30084C12.1773 1.88205 11.0937 1.6665 9.99935 1.6665ZM9.99935 14.9998C9.83453 14.9998 9.67342 14.951 9.53638 14.8594C9.39934 14.7678 9.29253 14.6377 9.22945 14.4854C9.16638 14.3331 9.14988 14.1656 9.18203 14.0039C9.21419 13.8423 9.29355 13.6938 9.4101 13.5772C9.52664 13.4607 9.67513 13.3813 9.83678 13.3492C9.99843 13.317 10.166 13.3335 10.3183 13.3966C10.4705 13.4597 10.6007 13.5665 10.6922 13.7035C10.7838 13.8406 10.8327 14.0017 10.8327 14.1665C10.8327 14.3875 10.7449 14.5995 10.5886 14.7558C10.4323 14.912 10.2204 14.9998 9.99935 14.9998ZM10.8327 10.6998V11.6665C10.8327 11.8875 10.7449 12.0995 10.5886 12.2558C10.4323 12.412 10.2204 12.4998 9.99935 12.4998C9.77834 12.4998 9.56638 12.412 9.4101 12.2558C9.25382 12.0995 9.16602 11.8875 9.16602 11.6665V9.99984C9.16602 9.77882 9.25382 9.56686 9.4101 9.41058C9.56638 9.2543 9.77834 9.1665 9.99935 9.1665C10.2466 9.1665 10.4883 9.09319 10.6938 8.95584C10.8994 8.81849 11.0596 8.62327 11.1542 8.39486C11.2488 8.16645 11.2736 7.91512 11.2253 7.67264C11.1771 7.43016 11.0581 7.20744 10.8832 7.03262C10.7084 6.8578 10.4857 6.73875 10.2432 6.69052C10.0007 6.64229 9.74941 6.66705 9.521 6.76165C9.29259 6.85626 9.09737 7.01648 8.96002 7.22204C8.82266 7.4276 8.74935 7.66928 8.74935 7.9165C8.74935 8.13752 8.66156 8.34948 8.50527 8.50576C8.34899 8.66204 8.13703 8.74984 7.91602 8.74984C7.69501 8.74984 7.48304 8.66204 7.32676 8.50576C7.17048 8.34948 7.08269 8.13752 7.08269 7.9165C7.08051 7.37509 7.22907 6.84375 7.51174 6.38198C7.79441 5.92021 8.20004 5.54624 8.6832 5.30192C9.16636 5.05761 9.70799 4.95261 10.2474 4.99867C10.7869 5.04472 11.3029 5.24003 11.7376 5.56271C12.1724 5.8854 12.5088 6.32272 12.7091 6.82573C12.9094 7.32873 12.9657 7.87756 12.8718 8.41077C12.7778 8.94398 12.5373 9.44052 12.1772 9.8448C11.8171 10.2491 11.3515 10.5451 10.8327 10.6998Z" fill="black"/>
</g>
<defs>
<clipPath id="clip0_1153_755">
<rect width="20" height="20" fill="white"/>
</clipPath>
</defs>
</svg>
