<svg width="27" height="27" viewBox="0 0 27 27" fill="none" xmlns="http://www.w3.org/2000/svg">
<path d="M13.5 0.583336C15.1963 0.583336 16.8759 0.917435 18.443 1.56656C20.0102 2.21568 21.4341 3.16712 22.6335 4.36654C23.8329 5.56596 24.7844 6.98989 25.4335 8.55701C26.0826 10.1241 26.4167 11.8038 26.4167 13.5C26.4167 16.9257 25.0558 20.2111 22.6335 22.6335C20.2112 25.0558 16.9258 26.4167 13.5 26.4167C11.8038 26.4167 10.1242 26.0826 8.55705 25.4334C6.98992 24.7843 5.566 23.8329 4.36658 22.6335C1.94423 20.2111 0.583374 16.9257 0.583374 13.5C0.583374 10.0743 1.94423 6.78889 4.36658 4.36654C6.78892 1.9442 10.0743 0.583336 13.5 0.583336ZM8.33337 7.95875V12.2729L17.5559 13.5L8.33337 14.7271V19.0413L21.25 13.5L8.33337 7.95875Z" fill="#3B68E6"/>
</svg>
