<svg width="24" height="24" viewBox="0 0 24 24" fill="none" xmlns="http://www.w3.org/2000/svg">
<g clip-path="url(#clip0_914_676)">
<path d="M21.6002 14.3999H18.9842C18.7802 15.2399 18.4562 16.0199 18.0122 16.7159L19.8602 18.5639L17.3402 21.0839L15.4922 19.2359C14.7962 19.6679 14.0162 19.9919 13.2002 20.1839V22.7999H9.60019V20.1839C8.78419 19.9919 8.00419 19.6679 7.30819 19.2359L5.4602 21.0839L2.9162 18.5399L4.76419 16.6919C4.33219 15.9959 4.00819 15.2159 3.8162 14.3999H1.2002V10.8359H3.80419C3.99619 9.9959 4.33219 9.2159 4.76419 8.5079L2.9162 6.6599L5.43619 4.1399L7.28419 5.9879C7.98019 5.5439 8.77219 5.2199 9.60019 5.0159V2.3999H13.2002V5.0159C14.0162 5.2079 14.7962 5.5319 15.4922 5.9639L17.3402 4.1159L19.8842 6.6599L18.0362 8.5079C18.4682 9.2159 18.8042 9.9959 18.9962 10.8359H21.6002V14.3999ZM11.4002 16.1999C13.3922 16.1999 15.0002 14.5919 15.0002 12.5999C15.0002 10.6079 13.3922 8.9999 11.4002 8.9999C9.40819 8.9999 7.80019 10.6079 7.80019 12.5999C7.80019 14.5919 9.40819 16.1999 11.4002 16.1999Z" fill="black"/>
</g>
<defs>
<clipPath id="clip0_914_676">
<rect width="24" height="24" fill="white"/>
</clipPath>
</defs>
</svg>
