<svg width="24" height="24" viewBox="0 0 24 24" fill="none" xmlns="http://www.w3.org/2000/svg">
<path d="M12 4.136L6 6.386V10C6.00014 11.2854 6.27502 12.556 6.80622 13.7265C7.33741 14.897 8.11266 15.9405 9.08 16.787L12 19.342V4.136ZM4.649 4.756L12 2L19.351 4.757C19.5416 4.82844 19.7058 4.95632 19.8218 5.12357C19.9377 5.29082 19.9999 5.48948 20 5.693V10C20 13.177 18.628 16.2 16.237 18.293L12 22L7.763 18.293C6.58096 17.2587 5.63369 15.9837 4.98469 14.5534C4.33569 13.1231 3.99996 11.5706 4 10V5.693C4.00008 5.48948 4.06225 5.29082 4.17822 5.12357C4.29419 4.95632 4.45843 4.82844 4.649 4.757V4.756Z" fill="white"/>
</svg>
