<svg width="27" height="27" viewBox="0 0 27 27" fill="none" xmlns="http://www.w3.org/2000/svg">
<g clip-path="url(#clip0_547_432)">
<path d="M10.7996 6.75C10.7996 6.0075 10.1921 5.4 9.44961 5.4H2.69961C1.95711 5.4 1.34961 6.0075 1.34961 6.75C1.34961 7.5195 2.01111 8.1 2.69961 8.1H9.44961C10.1921 8.1 10.7996 7.4925 10.7996 6.75ZM18.8996 13.5L24.2996 8.1V21.6L18.8996 16.2V13.5ZM17.5496 18.9V10.8C17.5496 10.0575 16.9421 9.45 16.1996 9.45H5.39961C4.65711 9.45 4.04961 10.0575 4.04961 10.8V18.9C4.04961 19.6425 4.65711 20.25 5.39961 20.25H16.1996C16.9421 20.25 17.5496 19.6425 17.5496 18.9Z" fill="#333333"/>
</g>
<defs>
<clipPath id="clip0_547_432">
<rect width="27" height="27" fill="white"/>
</clipPath>
</defs>
</svg>
