<svg width="44" height="49" viewBox="0 0 44 49" fill="none" xmlns="http://www.w3.org/2000/svg">
<g clip-path="url(#clip0_752_478)">
<path d="M35.9999 37.754C35.5736 37.754 35.1515 37.838 34.7577 38.0011C34.3639 38.1642 34.0061 38.4033 33.7046 38.7047C33.4032 39.0062 33.1641 39.364 33.001 39.7578C32.8379 40.1516 32.7539 40.5737 32.7539 41C32.7539 41.4263 32.8379 41.8484 33.001 42.2422C33.1641 42.636 33.4032 42.9939 33.7046 43.2953C34.0061 43.5967 34.3639 43.8358 34.7577 43.9989C35.1515 44.1621 35.5736 44.246 35.9999 44.246C36.8608 44.246 37.6864 43.904 38.2952 43.2953C38.9039 42.6865 39.2459 41.8609 39.2459 41C39.2459 40.1391 38.9039 39.3135 38.2952 38.7047C37.6864 38.096 36.8608 37.754 35.9999 37.754ZM33.7539 41C33.7539 40.4043 33.9905 39.8331 34.4117 39.4119C34.833 38.9906 35.4042 38.754 35.9999 38.754C36.5956 38.754 37.1669 38.9906 37.5881 39.4119C38.0093 39.8331 38.2459 40.4043 38.2459 41C38.2459 41.5957 38.0093 42.167 37.5881 42.5882C37.1669 43.0094 36.5956 43.246 35.9999 43.246C35.4042 43.246 34.833 43.0094 34.4117 42.5882C33.9905 42.167 33.7539 41.5957 33.7539 41Z" fill="#6C757D"/>
<path d="M37.7965 34.343C37.2695 32.553 34.7315 32.553 34.2045 34.343L34.1105 34.662C34.0737 34.787 34.0094 34.9021 33.9223 34.999C33.8352 35.0958 33.7276 35.172 33.6072 35.2219C33.4869 35.2717 33.3569 35.294 33.2268 35.2871C33.0968 35.2802 32.9699 35.2443 32.8555 35.182L32.5635 35.022C30.9235 34.13 29.1305 35.924 30.0235 37.563L30.1825 37.855C30.2448 37.9694 30.2807 38.0963 30.2876 38.2264C30.2945 38.3564 30.2722 38.4864 30.2223 38.6067C30.1725 38.7271 30.0963 38.8347 29.9994 38.9218C29.9026 39.0089 29.7874 39.0732 29.6625 39.11L29.3435 39.204C27.5535 39.731 27.5535 42.269 29.3435 42.796L29.6625 42.89C29.7874 42.9268 29.9026 42.9911 29.9994 43.0782C30.0963 43.1653 30.1725 43.2729 30.2223 43.3933C30.2722 43.5136 30.2945 43.6436 30.2876 43.7736C30.2807 43.9037 30.2448 44.0306 30.1825 44.145L30.0225 44.437C29.1305 46.077 30.9235 47.871 32.5635 46.977L32.8555 46.818C32.9699 46.7557 33.0968 46.7198 33.2268 46.7129C33.3569 46.706 33.4869 46.7283 33.6072 46.7782C33.7276 46.828 33.8352 46.9042 33.9223 47.001C34.0094 47.0979 34.0737 47.2131 34.1105 47.338L34.2045 47.657C34.7315 49.447 37.2695 49.447 37.7965 47.657L37.8905 47.338C37.9273 47.2131 37.9916 47.0979 38.0787 47.001C38.1657 46.9042 38.2734 46.828 38.3937 46.7782C38.5141 46.7283 38.644 46.706 38.7741 46.7129C38.9042 46.7198 39.0311 46.7557 39.1455 46.818L39.4375 46.978C41.0775 47.871 42.8715 46.076 41.9775 44.437L41.8185 44.145C41.7562 44.0306 41.7203 43.9037 41.7134 43.7736C41.7065 43.6436 41.7288 43.5136 41.7786 43.3933C41.8285 43.2729 41.9046 43.1653 42.0015 43.0782C42.0984 42.9911 42.2135 42.9268 42.3385 42.89L42.6575 42.796C44.4475 42.269 44.4475 39.731 42.6575 39.204L42.3385 39.11C42.2135 39.0732 42.0984 39.0089 42.0015 38.9218C41.9046 38.8347 41.8285 38.7271 41.7786 38.6067C41.7288 38.4864 41.7065 38.3564 41.7134 38.2264C41.7203 38.0963 41.7562 37.9694 41.8185 37.855L41.9785 37.563C42.8715 35.923 41.0765 34.13 39.4375 35.023L39.1455 35.182C39.0311 35.2443 38.9042 35.2802 38.7741 35.2871C38.644 35.294 38.5141 35.2717 38.3937 35.2219C38.2734 35.172 38.1657 35.0958 38.0787 34.999C37.9916 34.9021 37.9273 34.787 37.8905 34.662L37.7965 34.343ZM35.1635 34.626C35.4095 33.791 36.5915 33.791 36.8375 34.626L36.9315 34.945C37.0105 35.2131 37.1485 35.4601 37.3354 35.6679C37.5223 35.8757 37.7533 36.0391 38.0116 36.146C38.2698 36.2529 38.5487 36.3007 38.8278 36.2858C39.1069 36.2709 39.3791 36.1938 39.6245 36.06L39.9155 35.9C40.6795 35.485 41.5155 36.32 41.0995 37.085L40.9405 37.377C40.8069 37.6224 40.73 37.8946 40.7152 38.1737C40.7005 38.4527 40.7484 38.7315 40.8554 38.9896C40.9624 39.2477 41.1258 39.4786 41.3336 39.6654C41.5415 39.8522 41.7884 39.9901 42.0565 40.069L42.3745 40.163C43.2095 40.409 43.2095 41.591 42.3745 41.837L42.0555 41.931C41.7874 42.01 41.5404 42.148 41.3326 42.3349C41.1248 42.5218 40.9614 42.7528 40.8545 43.0111C40.7476 43.2693 40.6998 43.5482 40.7147 43.8273C40.7296 44.1064 40.8067 44.3786 40.9405 44.624L41.1005 44.915C41.5155 45.679 40.6805 46.515 39.9155 46.099L39.6245 45.94C39.379 45.8063 39.1067 45.7291 38.8276 45.7143C38.5484 45.6995 38.2695 45.7474 38.0113 45.8544C37.753 45.9614 37.522 46.1249 37.3352 46.3328C37.1483 46.5407 37.0104 46.7878 36.9315 47.056L36.8375 47.374C36.5915 48.209 35.4095 48.209 35.1635 47.374L35.0695 47.055C34.9904 46.7871 34.8524 46.5402 34.6656 46.3325C34.4788 46.1248 34.2479 45.9615 33.9898 45.8546C33.7317 45.7477 33.4529 45.6999 33.1739 45.7147C32.895 45.7294 32.6228 45.8064 32.3775 45.94L32.0855 46.1C31.3215 46.515 30.4855 45.68 30.9015 44.915L31.0605 44.624C31.1944 44.3786 31.2717 44.1062 31.2867 43.827C31.3017 43.5478 31.254 43.2688 31.147 43.0104C31.0401 42.7521 30.8767 42.5209 30.6688 42.334C30.4608 42.147 30.2137 42.009 29.9455 41.93L29.6265 41.836C28.7915 41.59 28.7915 40.408 29.6265 40.162L29.9455 40.068C30.2133 39.9889 30.46 39.8509 30.6676 39.6642C30.8752 39.4774 31.0384 39.2466 31.1453 38.9887C31.2522 38.7307 31.3001 38.4521 31.2854 38.1732C31.2707 37.8944 31.1939 37.6223 31.0605 37.377L30.9005 37.085C30.4855 36.321 31.3205 35.485 32.0855 35.901L32.3775 36.06C32.6228 36.1936 32.895 36.2706 33.1739 36.2854C33.4529 36.3001 33.7317 36.2523 33.9898 36.1454C34.2479 36.0385 34.4788 35.8752 34.6656 35.6675C34.8524 35.4598 34.9904 35.2129 35.0695 34.945L35.1635 34.626Z" fill="#6C757D"/>
</g>
<g clip-path="url(#clip1_752_478)">
<path d="M16 10C16 8.9 15.1 8 14 8H4C2.9 8 2 8.9 2 10C2 11.14 2.98 12 4 12H14C15.1 12 16 11.1 16 10ZM28 20L36 12V32L28 24V20ZM26 28V16C26 14.9 25.1 14 24 14H8C6.9 14 6 14.9 6 16V28C6 29.1 6.9 30 8 30H24C25.1 30 26 29.1 26 28Z" fill="#6C757D"/>
</g>
<defs>
<clipPath id="clip0_752_478">
<rect width="16" height="16" fill="white" transform="translate(28 33)"/>
</clipPath>
<clipPath id="clip1_752_478">
<rect width="40" height="40" fill="white"/>
</clipPath>
</defs>
</svg>
